<svg width="213" height="266" viewBox="0 0 213 266" fill="none" xmlns="http://www.w3.org/2000/svg">
<rect width="213" height="266" rx="24" fill="white"/>
<g clip-path="url(#clip0_820_4944)">
<path d="M0 24C0 10.7452 10.7452 0 24 0H189C202.255 0 213 10.7452 213 24V182C213 199.673 198.673 214 181 214H32C14.3269 214 0 199.673 0 182V24Z" fill="url(#paint0_linear_820_4944)"/>
<ellipse cx="71.5" cy="115.5" rx="130.5" ry="131.5" transform="rotate(-180 71.5 115.5)" fill="url(#paint1_linear_820_4944)"/>
<ellipse cx="141.5" cy="115.5" rx="130.5" ry="131.5" transform="rotate(-180 141.5 115.5)" fill="url(#paint2_linear_820_4944)"/>
<path d="M54.9817 45C54.8644 45 54.7897 44.9467 54.7577 44.84L51.8457 34.008L51.8297 33.944C51.8297 33.848 51.8884 33.8 52.0057 33.8H53.5737C53.691 33.8 53.7657 33.8533 53.7977 33.96L55.6217 41.256C55.6324 41.288 55.6484 41.304 55.6697 41.304C55.691 41.304 55.707 41.288 55.7177 41.256L57.4617 33.96C57.4937 33.8533 57.563 33.8 57.6697 33.8H59.2057C59.323 33.8 59.3977 33.8533 59.4297 33.96L61.2857 41.272C61.2964 41.304 61.3124 41.32 61.3337 41.32C61.355 41.32 61.371 41.304 61.3817 41.272L63.1737 33.96C63.2057 33.8533 63.2804 33.8 63.3977 33.8H64.8857C65.035 33.8 65.0937 33.8693 65.0617 34.008L62.2937 44.84C62.2617 44.9467 62.187 45 62.0697 45H60.5817C60.4644 45 60.3897 44.9467 60.3577 44.84L58.4857 37.208C58.475 37.176 58.459 37.16 58.4377 37.16C58.4164 37.1493 58.4004 37.1653 58.3897 37.208L56.5977 44.84C56.5657 44.9467 56.4964 45 56.3897 45H54.9817ZM72.4583 39.992C72.501 40.2587 72.5223 40.5573 72.5223 40.888L72.5063 41.384C72.5063 41.512 72.4423 41.576 72.3143 41.576H67.3063C67.253 41.576 67.2263 41.6027 67.2263 41.656C67.2583 42.008 67.3063 42.248 67.3703 42.376C67.6263 43.144 68.2503 43.5333 69.2423 43.544C69.9676 43.544 70.5436 43.2453 70.9703 42.648C71.013 42.584 71.0663 42.552 71.1303 42.552C71.173 42.552 71.2103 42.568 71.2423 42.6L72.2343 43.416C72.3303 43.4907 72.3463 43.576 72.2823 43.672C71.9516 44.1413 71.509 44.504 70.9543 44.76C70.4103 45.016 69.8023 45.144 69.1303 45.144C68.2983 45.144 67.589 44.9573 67.0023 44.584C66.4263 44.2107 66.005 43.688 65.7383 43.016C65.493 42.44 65.3703 41.64 65.3703 40.616C65.3703 39.9973 65.4343 39.496 65.5623 39.112C65.7756 38.3653 66.1756 37.7787 66.7623 37.352C67.3596 36.9147 68.0743 36.696 68.9063 36.696C71.0076 36.696 72.1916 37.7947 72.4583 39.992ZM68.9063 38.296C68.5116 38.296 68.181 38.3973 67.9143 38.6C67.6583 38.792 67.477 39.064 67.3703 39.416C67.3063 39.5973 67.2636 39.832 67.2423 40.12C67.221 40.1733 67.2423 40.2 67.3063 40.2H70.5543C70.6076 40.2 70.6343 40.1733 70.6343 40.12C70.613 39.8533 70.581 39.6507 70.5383 39.512C70.4423 39.128 70.2503 38.8293 69.9623 38.616C69.685 38.4027 69.333 38.296 68.9063 38.296ZM81.1146 39.992C81.1572 40.2587 81.1786 40.5573 81.1786 40.888L81.1626 41.384C81.1626 41.512 81.0986 41.576 80.9706 41.576H75.9626C75.9092 41.576 75.8826 41.6027 75.8826 41.656C75.9146 42.008 75.9626 42.248 76.0266 42.376C76.2826 43.144 76.9066 43.5333 77.8986 43.544C78.6239 43.544 79.1999 43.2453 79.6266 42.648C79.6692 42.584 79.7226 42.552 79.7866 42.552C79.8292 42.552 79.8666 42.568 79.8986 42.6L80.8906 43.416C80.9866 43.4907 81.0026 43.576 80.9386 43.672C80.6079 44.1413 80.1652 44.504 79.6106 44.76C79.0666 45.016 78.4586 45.144 77.7866 45.144C76.9546 45.144 76.2452 44.9573 75.6586 44.584C75.0826 44.2107 74.6612 43.688 74.3946 43.016C74.1492 42.44 74.0266 41.64 74.0266 40.616C74.0266 39.9973 74.0906 39.496 74.2186 39.112C74.4319 38.3653 74.8319 37.7787 75.4186 37.352C76.0159 36.9147 76.7306 36.696 77.5626 36.696C79.6639 36.696 80.8479 37.7947 81.1146 39.992ZM77.5626 38.296C77.1679 38.296 76.8372 38.3973 76.5706 38.6C76.3146 38.792 76.1332 39.064 76.0266 39.416C75.9626 39.5973 75.9199 39.832 75.8986 40.12C75.8772 40.1733 75.8986 40.2 75.9626 40.2H79.2106C79.2639 40.2 79.2906 40.1733 79.2906 40.12C79.2692 39.8533 79.2372 39.6507 79.1946 39.512C79.0986 39.128 78.9066 38.8293 78.6186 38.616C78.3412 38.4027 77.9892 38.296 77.5626 38.296ZM83.0668 45C83.0135 45 82.9655 44.984 82.9228 44.952C82.8908 44.9093 82.8748 44.8613 82.8748 44.808V33.992C82.8748 33.9387 82.8908 33.896 82.9228 33.864C82.9655 33.8213 83.0135 33.8 83.0668 33.8H84.5388C84.5921 33.8 84.6348 33.8213 84.6668 33.864C84.7095 33.896 84.7308 33.9387 84.7308 33.992V39.768C84.7308 39.8 84.7415 39.8213 84.7628 39.832C84.7841 39.8427 84.8055 39.832 84.8268 39.8L87.4188 36.936C87.4935 36.8613 87.5735 36.824 87.6588 36.824H89.3548C89.4615 36.824 89.5148 36.8613 89.5148 36.936C89.5148 36.968 89.4988 37.0107 89.4668 37.064L87.4348 39.496C87.4028 39.528 87.3975 39.5653 87.4188 39.608L89.8188 44.776C89.8401 44.8187 89.8508 44.8507 89.8508 44.872C89.8508 44.9573 89.7921 45 89.6748 45H88.1228C88.0161 45 87.9415 44.952 87.8988 44.856L86.1548 40.792C86.1441 40.7707 86.1228 40.76 86.0908 40.76C86.0695 40.7493 86.0535 40.7547 86.0428 40.776L84.7628 42.248C84.7415 42.2907 84.7308 42.328 84.7308 42.36V44.808C84.7308 44.8613 84.7095 44.9093 84.6668 44.952C84.6348 44.984 84.5921 45 84.5388 45H83.0668ZM91.4262 45C91.3729 45 91.3249 44.984 91.2822 44.952C91.2502 44.9093 91.2342 44.8613 91.2342 44.808V33.992C91.2342 33.9387 91.2502 33.896 91.2822 33.864C91.3249 33.8213 91.3729 33.8 91.4262 33.8H92.8982C92.9515 33.8 92.9942 33.8213 93.0262 33.864C93.0689 33.896 93.0902 33.9387 93.0902 33.992V44.808C93.0902 44.8613 93.0689 44.9093 93.0262 44.952C92.9942 44.984 92.9515 45 92.8982 45H91.4262ZM94.9023 48.184C94.8703 48.184 94.8436 48.1627 94.8223 48.12C94.801 48.088 94.7903 48.0453 94.7903 47.992V46.84C94.7903 46.7867 94.8063 46.7387 94.8383 46.696C94.881 46.664 94.929 46.648 94.9823 46.648H94.9983C95.4356 46.6373 95.777 46.5893 96.0223 46.504C96.2676 46.4293 96.4703 46.28 96.6303 46.056C96.7903 45.832 96.9343 45.496 97.0623 45.048C97.073 45.0267 97.073 44.9947 97.0623 44.952L94.4223 37.032C94.4116 37.0107 94.4063 36.984 94.4063 36.952C94.4063 36.856 94.4596 36.808 94.5663 36.808H96.1343C96.2516 36.808 96.3263 36.8613 96.3583 36.968L97.9583 42.6C97.969 42.632 97.985 42.648 98.0063 42.648C98.0276 42.648 98.0436 42.632 98.0543 42.6L99.6543 36.968C99.6863 36.8613 99.761 36.808 99.8783 36.808H101.398C101.462 36.808 101.505 36.8293 101.526 36.872C101.558 36.904 101.564 36.9573 101.542 37.032L98.7263 45.448C98.4596 46.2053 98.1983 46.7707 97.9423 47.144C97.6863 47.5173 97.3343 47.784 96.8863 47.944C96.449 48.104 95.825 48.184 95.0143 48.184H94.9023ZM110.014 45.128C109.214 45.128 108.51 44.9733 107.902 44.664C107.294 44.344 106.824 43.9013 106.494 43.336C106.163 42.7707 105.998 42.1147 105.998 41.368V37.416C105.998 36.6693 106.163 36.0133 106.494 35.448C106.824 34.8827 107.294 34.4453 107.902 34.136C108.51 33.8267 109.214 33.672 110.014 33.672C110.803 33.672 111.502 33.8213 112.11 34.12C112.718 34.4187 113.187 34.84 113.518 35.384C113.848 35.928 114.014 36.5573 114.014 37.272C114.014 37.3253 113.992 37.3733 113.95 37.416C113.918 37.448 113.875 37.464 113.822 37.464L112.35 37.544C112.222 37.544 112.158 37.4853 112.158 37.368C112.158 36.7387 111.96 36.232 111.566 35.848C111.182 35.464 110.664 35.272 110.014 35.272C109.363 35.272 108.84 35.464 108.446 35.848C108.051 36.232 107.854 36.7387 107.854 37.368V41.448C107.854 42.0667 108.051 42.568 108.446 42.952C108.84 43.336 109.363 43.528 110.014 43.528C110.664 43.528 111.182 43.3413 111.566 42.968C111.96 42.584 112.158 42.0773 112.158 41.448C112.158 41.3307 112.222 41.272 112.35 41.272L113.822 41.336C113.875 41.336 113.918 41.352 113.95 41.384C113.992 41.416 114.014 41.4533 114.014 41.496C114.014 42.2213 113.848 42.8613 113.518 43.416C113.187 43.96 112.718 44.3813 112.11 44.68C111.502 44.9787 110.803 45.128 110.014 45.128ZM119.284 45.128C118.442 45.128 117.716 44.9147 117.108 44.488C116.511 44.0613 116.09 43.4693 115.844 42.712C115.663 42.136 115.572 41.528 115.572 40.888C115.572 40.2053 115.658 39.5973 115.828 39.064C116.074 38.3173 116.5 37.736 117.108 37.32C117.716 36.904 118.447 36.696 119.3 36.696C120.111 36.696 120.81 36.904 121.396 37.32C121.994 37.736 122.415 38.312 122.66 39.048C122.852 39.56 122.948 40.168 122.948 40.872C122.948 41.544 122.858 42.152 122.676 42.696C122.431 43.4533 122.01 44.0507 121.412 44.488C120.815 44.9147 120.106 45.128 119.284 45.128ZM119.284 43.528C119.679 43.528 120.015 43.416 120.292 43.192C120.58 42.968 120.788 42.6533 120.916 42.248C121.023 41.896 121.076 41.448 121.076 40.904C121.076 40.328 121.023 39.88 120.916 39.56C120.799 39.1547 120.596 38.8453 120.308 38.632C120.02 38.408 119.668 38.296 119.252 38.296C118.858 38.296 118.516 38.408 118.228 38.632C117.94 38.8453 117.732 39.1547 117.604 39.56C117.498 39.9333 117.444 40.3813 117.444 40.904C117.444 41.4267 117.498 41.8747 117.604 42.248C117.722 42.6533 117.924 42.968 118.212 43.192C118.511 43.416 118.868 43.528 119.284 43.528ZM129.535 37.016C129.535 36.9627 129.551 36.92 129.583 36.888C129.626 36.8453 129.674 36.824 129.727 36.824H131.183C131.236 36.824 131.279 36.8453 131.311 36.888C131.354 36.92 131.375 36.9627 131.375 37.016V44.808C131.375 44.8613 131.354 44.9093 131.311 44.952C131.279 44.984 131.236 45 131.183 45H129.727C129.674 45 129.626 44.984 129.583 44.952C129.551 44.9093 129.535 44.8613 129.535 44.808V44.296C129.535 44.264 129.524 44.2427 129.503 44.232C129.482 44.2213 129.46 44.232 129.439 44.264C129.002 44.8293 128.346 45.112 127.471 45.112C126.66 45.112 125.978 44.8773 125.423 44.408C124.879 43.9387 124.607 43.272 124.607 42.408V37.016C124.607 36.9627 124.623 36.92 124.655 36.888C124.698 36.8453 124.746 36.824 124.799 36.824H126.271C126.324 36.824 126.367 36.8453 126.399 36.888C126.442 36.92 126.463 36.9627 126.463 37.016V41.88C126.463 42.3813 126.591 42.7813 126.847 43.08C127.114 43.3787 127.482 43.528 127.951 43.528C128.431 43.528 128.815 43.3787 129.103 43.08C129.391 42.7813 129.535 42.3813 129.535 41.88V37.016ZM137.279 36.696C138.143 36.696 138.831 36.952 139.343 37.464C139.866 37.976 140.127 38.6747 140.127 39.56V44.808C140.127 44.8613 140.106 44.9093 140.063 44.952C140.031 44.984 139.989 45 139.935 45H138.463C138.41 45 138.362 44.984 138.319 44.952C138.287 44.9093 138.271 44.8613 138.271 44.808V39.944C138.271 39.4533 138.133 39.0587 137.855 38.76C137.578 38.4507 137.21 38.296 136.751 38.296C136.293 38.296 135.919 38.4453 135.631 38.744C135.354 39.0427 135.215 39.4373 135.215 39.928V44.808C135.215 44.8613 135.194 44.9093 135.151 44.952C135.119 44.984 135.077 45 135.023 45H133.551C133.498 45 133.45 44.984 133.407 44.952C133.375 44.9093 133.359 44.8613 133.359 44.808V37.016C133.359 36.9627 133.375 36.92 133.407 36.888C133.45 36.8453 133.498 36.824 133.551 36.824H135.023C135.077 36.824 135.119 36.8453 135.151 36.888C135.194 36.92 135.215 36.9627 135.215 37.016V37.528C135.215 37.56 135.226 37.5813 135.247 37.592C135.269 37.6027 135.285 37.592 135.295 37.56C135.733 36.984 136.394 36.696 137.279 36.696ZM146.398 38.136C146.398 38.1893 146.377 38.2373 146.334 38.28C146.302 38.312 146.26 38.328 146.206 38.328H144.574C144.521 38.328 144.494 38.3547 144.494 38.408V42.264C144.494 42.6693 144.58 42.9627 144.75 43.144C144.932 43.3253 145.214 43.416 145.598 43.416H146.078C146.132 43.416 146.174 43.4373 146.206 43.48C146.249 43.512 146.27 43.5547 146.27 43.608V44.808C146.27 44.9253 146.206 44.9947 146.078 45.016L145.246 45.032C144.404 45.032 143.774 44.888 143.358 44.6C142.942 44.312 142.729 43.768 142.718 42.968V38.408C142.718 38.3547 142.692 38.328 142.638 38.328H141.726C141.673 38.328 141.625 38.312 141.582 38.28C141.55 38.2373 141.534 38.1893 141.534 38.136V37.016C141.534 36.9627 141.55 36.92 141.582 36.888C141.625 36.8453 141.673 36.824 141.726 36.824H142.638C142.692 36.824 142.718 36.7973 142.718 36.744V34.872C142.718 34.8187 142.734 34.776 142.766 34.744C142.809 34.7013 142.857 34.68 142.91 34.68H144.302C144.356 34.68 144.398 34.7013 144.43 34.744C144.473 34.776 144.494 34.8187 144.494 34.872V36.744C144.494 36.7973 144.521 36.824 144.574 36.824H146.206C146.26 36.824 146.302 36.8453 146.334 36.888C146.377 36.92 146.398 36.9627 146.398 37.016V38.136ZM154.786 39.992C154.829 40.2587 154.85 40.5573 154.85 40.888L154.834 41.384C154.834 41.512 154.77 41.576 154.642 41.576H149.634C149.581 41.576 149.554 41.6027 149.554 41.656C149.586 42.008 149.634 42.248 149.698 42.376C149.954 43.144 150.578 43.5333 151.57 43.544C152.296 43.544 152.872 43.2453 153.298 42.648C153.341 42.584 153.394 42.552 153.458 42.552C153.501 42.552 153.538 42.568 153.57 42.6L154.562 43.416C154.658 43.4907 154.674 43.576 154.61 43.672C154.28 44.1413 153.837 44.504 153.282 44.76C152.738 45.016 152.13 45.144 151.458 45.144C150.626 45.144 149.917 44.9573 149.33 44.584C148.754 44.2107 148.333 43.688 148.066 43.016C147.821 42.44 147.698 41.64 147.698 40.616C147.698 39.9973 147.762 39.496 147.89 39.112C148.104 38.3653 148.504 37.7787 149.09 37.352C149.688 36.9147 150.402 36.696 151.234 36.696C153.336 36.696 154.52 37.7947 154.786 39.992ZM151.234 38.296C150.84 38.296 150.509 38.3973 150.242 38.6C149.986 38.792 149.805 39.064 149.698 39.416C149.634 39.5973 149.592 39.832 149.57 40.12C149.549 40.1733 149.57 40.2 149.634 40.2H152.882C152.936 40.2 152.962 40.1733 152.962 40.12C152.941 39.8533 152.909 39.6507 152.866 39.512C152.77 39.128 152.578 38.8293 152.29 38.616C152.013 38.4027 151.661 38.296 151.234 38.296ZM160.355 36.728C160.696 36.728 160.995 36.7973 161.251 36.936C161.336 36.9787 161.368 37.0587 161.347 37.176L161.075 38.616C161.064 38.744 160.989 38.7813 160.851 38.728C160.691 38.6747 160.504 38.648 160.291 38.648C160.152 38.648 160.045 38.6533 159.971 38.664C159.523 38.6853 159.149 38.8453 158.851 39.144C158.552 39.432 158.403 39.8107 158.403 40.28V44.808C158.403 44.8613 158.381 44.9093 158.339 44.952C158.307 44.984 158.264 45 158.211 45H156.739C156.685 45 156.637 44.984 156.595 44.952C156.563 44.9093 156.547 44.8613 156.547 44.808V37.016C156.547 36.9627 156.563 36.92 156.595 36.888C156.637 36.8453 156.685 36.824 156.739 36.824H158.211C158.264 36.824 158.307 36.8453 158.339 36.888C158.381 36.92 158.403 36.9627 158.403 37.016V37.736C158.403 37.7787 158.408 37.8053 158.419 37.816C158.44 37.816 158.461 37.8 158.483 37.768C158.931 37.0747 159.555 36.728 160.355 36.728ZM77.6121 65.128C76.7801 65.128 76.0548 64.9947 75.4361 64.728C74.8175 64.4613 74.3375 64.088 73.9961 63.608C73.6655 63.128 73.5001 62.5627 73.5001 61.912V61.512C73.5001 61.4587 73.5161 61.416 73.5481 61.384C73.5908 61.3413 73.6388 61.32 73.6921 61.32H75.1161C75.1695 61.32 75.2121 61.3413 75.2441 61.384C75.2868 61.416 75.3081 61.4587 75.3081 61.512V61.816C75.3081 62.3067 75.5268 62.7173 75.9641 63.048C76.4015 63.368 76.9988 63.528 77.7561 63.528C78.4068 63.528 78.8975 63.3893 79.2281 63.112C79.5588 62.8347 79.7241 62.4773 79.7241 62.04C79.7241 61.7413 79.6335 61.4907 79.4521 61.288C79.2708 61.0747 79.0095 60.8827 78.6681 60.712C78.3375 60.5413 77.8361 60.328 77.1641 60.072C76.4068 59.7947 75.7935 59.5333 75.3241 59.288C74.8548 59.0427 74.4601 58.712 74.1401 58.296C73.8308 57.8693 73.6761 57.3413 73.6761 56.712C73.6761 55.7733 74.0175 55.032 74.7001 54.488C75.3828 53.944 76.2948 53.672 77.4361 53.672C78.2361 53.672 78.9401 53.8107 79.5481 54.088C80.1668 54.3653 80.6468 54.7547 80.9881 55.256C81.3295 55.7467 81.5001 56.3173 81.5001 56.968V57.24C81.5001 57.2933 81.4788 57.3413 81.4361 57.384C81.4041 57.416 81.3615 57.432 81.3081 57.432H79.8681C79.8148 57.432 79.7668 57.416 79.7241 57.384C79.6921 57.3413 79.6761 57.2933 79.6761 57.24V57.064C79.6761 56.5627 79.4681 56.1413 79.0521 55.8C78.6468 55.448 78.0815 55.272 77.3561 55.272C76.7695 55.272 76.3108 55.3947 75.9801 55.64C75.6601 55.8853 75.5001 56.232 75.5001 56.68C75.5001 57 75.5855 57.2613 75.7561 57.464C75.9268 57.6667 76.1828 57.8533 76.5241 58.024C76.8655 58.184 77.3935 58.392 78.1081 58.648C78.8655 58.936 79.4681 59.1973 79.9161 59.432C80.3748 59.6667 80.7641 59.9973 81.0841 60.424C81.4148 60.84 81.5801 61.3627 81.5801 61.992C81.5801 62.952 81.2228 63.7147 80.5081 64.28C79.8041 64.8453 78.8388 65.128 77.6121 65.128ZM88.1053 57.016C88.1053 56.9627 88.1213 56.92 88.1533 56.888C88.1959 56.8453 88.2439 56.824 88.2973 56.824H89.7533C89.8066 56.824 89.8493 56.8453 89.8813 56.888C89.9239 56.92 89.9453 56.9627 89.9453 57.016V64.808C89.9453 64.8613 89.9239 64.9093 89.8813 64.952C89.8493 64.984 89.8066 65 89.7533 65H88.2973C88.2439 65 88.1959 64.984 88.1533 64.952C88.1213 64.9093 88.1053 64.8613 88.1053 64.808V64.296C88.1053 64.264 88.0946 64.2427 88.0733 64.232C88.0519 64.2213 88.0306 64.232 88.0093 64.264C87.5719 64.8293 86.9159 65.112 86.0413 65.112C85.2306 65.112 84.5479 64.8773 83.9933 64.408C83.4493 63.9387 83.1773 63.272 83.1773 62.408V57.016C83.1773 56.9627 83.1933 56.92 83.2253 56.888C83.2679 56.8453 83.3159 56.824 83.3693 56.824H84.8413C84.8946 56.824 84.9373 56.8453 84.9693 56.888C85.0119 56.92 85.0333 56.9627 85.0333 57.016V61.88C85.0333 62.3813 85.1613 62.7813 85.4173 63.08C85.6839 63.3787 86.0519 63.528 86.5213 63.528C87.0013 63.528 87.3853 63.3787 87.6733 63.08C87.9613 62.7813 88.1053 62.3813 88.1053 61.88V57.016ZM100.682 56.696C101.503 56.696 102.143 56.9467 102.602 57.448C103.071 57.9387 103.306 58.6267 103.306 59.512V64.808C103.306 64.8613 103.284 64.9093 103.242 64.952C103.21 64.984 103.167 65 103.114 65H101.658C101.604 65 101.556 64.984 101.514 64.952C101.482 64.9093 101.466 64.8613 101.466 64.808V59.896C101.466 59.4053 101.332 59.016 101.066 58.728C100.81 58.44 100.463 58.296 100.026 58.296C99.5882 58.296 99.2308 58.44 98.9535 58.728C98.6762 59.016 98.5375 59.4 98.5375 59.88V64.808C98.5375 64.8613 98.5162 64.9093 98.4735 64.952C98.4415 64.984 98.3988 65 98.3455 65H96.8895C96.8362 65 96.7882 64.984 96.7455 64.952C96.7135 64.9093 96.6975 64.8613 96.6975 64.808V59.896C96.6975 59.4053 96.5642 59.016 96.2975 58.728C96.0308 58.44 95.6788 58.296 95.2415 58.296C94.8362 58.296 94.5002 58.4133 94.2335 58.648C93.9775 58.8827 93.8282 59.2027 93.7855 59.608V64.808C93.7855 64.8613 93.7642 64.9093 93.7215 64.952C93.6895 64.984 93.6468 65 93.5935 65H92.1215C92.0682 65 92.0202 64.984 91.9775 64.952C91.9455 64.9093 91.9295 64.8613 91.9295 64.808V57.016C91.9295 56.9627 91.9455 56.92 91.9775 56.888C92.0202 56.8453 92.0682 56.824 92.1215 56.824H93.5935C93.6468 56.824 93.6895 56.8453 93.7215 56.888C93.7642 56.92 93.7855 56.9627 93.7855 57.016V57.544C93.7855 57.576 93.7962 57.5973 93.8175 57.608C93.8388 57.6187 93.8602 57.608 93.8815 57.576C94.1162 57.2773 94.4042 57.0587 94.7455 56.92C95.0975 56.7707 95.4868 56.696 95.9135 56.696C96.4362 56.696 96.8948 56.8027 97.2895 57.016C97.6842 57.2293 97.9882 57.5387 98.2015 57.944C98.2335 57.9867 98.2708 57.9867 98.3135 57.944C98.5482 57.5173 98.8735 57.2027 99.2895 57C99.7055 56.7973 100.17 56.696 100.682 56.696ZM113.947 56.696C114.768 56.696 115.408 56.9467 115.867 57.448C116.336 57.9387 116.571 58.6267 116.571 59.512V64.808C116.571 64.8613 116.55 64.9093 116.507 64.952C116.475 64.984 116.432 65 116.379 65H114.923C114.87 65 114.822 64.984 114.779 64.952C114.747 64.9093 114.731 64.8613 114.731 64.808V59.896C114.731 59.4053 114.598 59.016 114.331 58.728C114.075 58.44 113.728 58.296 113.291 58.296C112.854 58.296 112.496 58.44 112.219 58.728C111.942 59.016 111.803 59.4 111.803 59.88V64.808C111.803 64.8613 111.782 64.9093 111.739 64.952C111.707 64.984 111.664 65 111.611 65H110.155C110.102 65 110.054 64.984 110.011 64.952C109.979 64.9093 109.963 64.8613 109.963 64.808V59.896C109.963 59.4053 109.83 59.016 109.563 58.728C109.296 58.44 108.944 58.296 108.507 58.296C108.102 58.296 107.766 58.4133 107.499 58.648C107.243 58.8827 107.094 59.2027 107.051 59.608V64.808C107.051 64.8613 107.03 64.9093 106.987 64.952C106.955 64.984 106.912 65 106.859 65H105.387C105.334 65 105.286 64.984 105.243 64.952C105.211 64.9093 105.195 64.8613 105.195 64.808V57.016C105.195 56.9627 105.211 56.92 105.243 56.888C105.286 56.8453 105.334 56.824 105.387 56.824H106.859C106.912 56.824 106.955 56.8453 106.987 56.888C107.03 56.92 107.051 56.9627 107.051 57.016V57.544C107.051 57.576 107.062 57.5973 107.083 57.608C107.104 57.6187 107.126 57.608 107.147 57.576C107.382 57.2773 107.67 57.0587 108.011 56.92C108.363 56.7707 108.752 56.696 109.179 56.696C109.702 56.696 110.16 56.8027 110.555 57.016C110.95 57.2293 111.254 57.5387 111.467 57.944C111.499 57.9867 111.536 57.9867 111.579 57.944C111.814 57.5173 112.139 57.2027 112.555 57C112.971 56.7973 113.435 56.696 113.947 56.696ZM125.294 59.992C125.337 60.2587 125.358 60.5573 125.358 60.888L125.342 61.384C125.342 61.512 125.278 61.576 125.15 61.576H120.142C120.089 61.576 120.062 61.6027 120.062 61.656C120.094 62.008 120.142 62.248 120.206 62.376C120.462 63.144 121.086 63.5333 122.078 63.544C122.804 63.544 123.38 63.2453 123.806 62.648C123.849 62.584 123.902 62.552 123.966 62.552C124.009 62.552 124.046 62.568 124.078 62.6L125.07 63.416C125.166 63.4907 125.182 63.576 125.118 63.672C124.788 64.1413 124.345 64.504 123.79 64.76C123.246 65.016 122.638 65.144 121.966 65.144C121.134 65.144 120.425 64.9573 119.838 64.584C119.262 64.2107 118.841 63.688 118.574 63.016C118.329 62.44 118.206 61.64 118.206 60.616C118.206 59.9973 118.27 59.496 118.398 59.112C118.612 58.3653 119.012 57.7787 119.598 57.352C120.196 56.9147 120.91 56.696 121.742 56.696C123.844 56.696 125.028 57.7947 125.294 59.992ZM121.742 58.296C121.348 58.296 121.017 58.3973 120.75 58.6C120.494 58.792 120.313 59.064 120.206 59.416C120.142 59.5973 120.1 59.832 120.078 60.12C120.057 60.1733 120.078 60.2 120.142 60.2H123.39C123.444 60.2 123.47 60.1733 123.47 60.12C123.449 59.8533 123.417 59.6507 123.374 59.512C123.278 59.128 123.086 58.8293 122.798 58.616C122.521 58.4027 122.169 58.296 121.742 58.296ZM130.863 56.728C131.204 56.728 131.503 56.7973 131.759 56.936C131.844 56.9787 131.876 57.0587 131.855 57.176L131.583 58.616C131.572 58.744 131.497 58.7813 131.359 58.728C131.199 58.6747 131.012 58.648 130.799 58.648C130.66 58.648 130.553 58.6533 130.479 58.664C130.031 58.6853 129.657 58.8453 129.359 59.144C129.06 59.432 128.911 59.8107 128.911 60.28V64.808C128.911 64.8613 128.889 64.9093 128.847 64.952C128.815 64.984 128.772 65 128.719 65H127.247C127.193 65 127.145 64.984 127.103 64.952C127.071 64.9093 127.055 64.8613 127.055 64.808V57.016C127.055 56.9627 127.071 56.92 127.103 56.888C127.145 56.8453 127.193 56.824 127.247 56.824H128.719C128.772 56.824 128.815 56.8453 128.847 56.888C128.889 56.92 128.911 56.9627 128.911 57.016V57.736C128.911 57.7787 128.916 57.8053 128.927 57.816C128.948 57.816 128.969 57.8 128.991 57.768C129.439 57.0747 130.063 56.728 130.863 56.728ZM133.176 68.184C133.144 68.184 133.117 68.1627 133.096 68.12C133.074 68.088 133.064 68.0453 133.064 67.992V66.84C133.064 66.7867 133.08 66.7387 133.112 66.696C133.154 66.664 133.202 66.648 133.256 66.648H133.272C133.709 66.6373 134.05 66.5893 134.296 66.504C134.541 66.4293 134.744 66.28 134.904 66.056C135.064 65.832 135.208 65.496 135.336 65.048C135.346 65.0267 135.346 64.9947 135.336 64.952L132.696 57.032C132.685 57.0107 132.68 56.984 132.68 56.952C132.68 56.856 132.733 56.808 132.84 56.808H134.408C134.525 56.808 134.6 56.8613 134.632 56.968L136.232 62.6C136.242 62.632 136.258 62.648 136.28 62.648C136.301 62.648 136.317 62.632 136.328 62.6L137.928 56.968C137.96 56.8613 138.034 56.808 138.152 56.808H139.672C139.736 56.808 139.778 56.8293 139.8 56.872C139.832 56.904 139.837 56.9573 139.816 57.032L137 65.448C136.733 66.2053 136.472 66.7707 136.216 67.144C135.96 67.5173 135.608 67.784 135.16 67.944C134.722 68.104 134.098 68.184 133.288 68.184H133.176Z" fill="white"/>
<path d="M74.7817 84.108C74.2217 84.108 73.7297 84 73.3057 83.784C72.8817 83.56 72.5497 83.248 72.3097 82.848C72.0777 82.44 71.9617 81.972 71.9617 81.444V78.144C71.9617 77.624 72.0777 77.164 72.3097 76.764C72.5497 76.364 72.8817 76.056 73.3057 75.84C73.7297 75.616 74.2217 75.504 74.7817 75.504C75.3417 75.504 75.8337 75.612 76.2577 75.828C76.6817 76.044 77.0097 76.348 77.2417 76.74C77.4817 77.132 77.6017 77.584 77.6017 78.096C77.6017 78.136 77.5897 78.168 77.5657 78.192C77.5417 78.216 77.5137 78.228 77.4817 78.228L76.8697 78.264C76.7897 78.264 76.7497 78.228 76.7497 78.156V78.12C76.7497 77.552 76.5697 77.1 76.2097 76.764C75.8497 76.42 75.3737 76.248 74.7817 76.248C74.1897 76.248 73.7137 76.42 73.3537 76.764C72.9937 77.108 72.8137 77.56 72.8137 78.12V81.48C72.8137 82.04 72.9937 82.492 73.3537 82.836C73.7137 83.18 74.1897 83.352 74.7817 83.352C75.3737 83.352 75.8497 83.184 76.2097 82.848C76.5697 82.504 76.7497 82.048 76.7497 81.48V81.456C76.7497 81.384 76.7897 81.348 76.8697 81.348L77.4817 81.384C77.5617 81.384 77.6017 81.42 77.6017 81.492C77.6017 82.012 77.4817 82.472 77.2417 82.872C77.0097 83.264 76.6817 83.568 76.2577 83.784C75.8337 84 75.3417 84.108 74.7817 84.108ZM83.0187 78.048C83.0187 77.968 83.0587 77.928 83.1387 77.928H83.7507C83.8307 77.928 83.8707 77.968 83.8707 78.048V83.88C83.8707 83.96 83.8307 84 83.7507 84H83.1387C83.0587 84 83.0187 83.96 83.0187 83.88V83.364C83.0187 83.348 83.0107 83.336 82.9947 83.328C82.9787 83.32 82.9667 83.324 82.9587 83.34C82.6227 83.836 82.0907 84.084 81.3627 84.084C80.9787 84.084 80.6227 84.008 80.2947 83.856C79.9747 83.696 79.7187 83.468 79.5267 83.172C79.3427 82.876 79.2507 82.52 79.2507 82.104V78.048C79.2507 77.968 79.2907 77.928 79.3707 77.928H79.9827C80.0627 77.928 80.1027 77.968 80.1027 78.048V81.852C80.1027 82.308 80.2307 82.672 80.4867 82.944C80.7427 83.208 81.0907 83.34 81.5307 83.34C81.9867 83.34 82.3467 83.204 82.6107 82.932C82.8827 82.66 83.0187 82.3 83.0187 81.852V78.048ZM88.2283 77.868C88.4923 77.868 88.7203 77.92 88.9123 78.024C88.9763 78.056 89.0003 78.108 88.9843 78.18L88.8523 78.768C88.8283 78.848 88.7763 78.872 88.6963 78.84C88.5603 78.784 88.4043 78.756 88.2283 78.756L88.0723 78.768C87.6563 78.784 87.3123 78.94 87.0403 79.236C86.7683 79.524 86.6323 79.892 86.6323 80.34V83.88C86.6323 83.96 86.5923 84 86.5123 84H85.9003C85.8203 84 85.7803 83.96 85.7803 83.88V78.048C85.7803 77.968 85.8203 77.928 85.9003 77.928H86.5123C86.5923 77.928 86.6323 77.968 86.6323 78.048V78.78C86.6323 78.804 86.6363 78.82 86.6443 78.828C86.6603 78.828 86.6723 78.82 86.6803 78.804C86.8483 78.508 87.0603 78.28 87.3163 78.12C87.5803 77.952 87.8843 77.868 88.2283 77.868ZM92.5994 77.868C92.8634 77.868 93.0914 77.92 93.2834 78.024C93.3474 78.056 93.3714 78.108 93.3554 78.18L93.2234 78.768C93.1994 78.848 93.1474 78.872 93.0674 78.84C92.9314 78.784 92.7754 78.756 92.5994 78.756L92.4434 78.768C92.0274 78.784 91.6834 78.94 91.4114 79.236C91.1394 79.524 91.0034 79.892 91.0034 80.34V83.88C91.0034 83.96 90.9634 84 90.8834 84H90.2714C90.1914 84 90.1514 83.96 90.1514 83.88V78.048C90.1514 77.968 90.1914 77.928 90.2714 77.928H90.8834C90.9634 77.928 91.0034 77.968 91.0034 78.048V78.78C91.0034 78.804 91.0074 78.82 91.0154 78.828C91.0314 78.828 91.0434 78.82 91.0514 78.804C91.2194 78.508 91.4314 78.28 91.6874 78.12C91.9514 77.952 92.2554 77.868 92.5994 77.868ZM99.1199 79.944C99.1519 80.168 99.1679 80.448 99.1679 80.784V81.168C99.1679 81.248 99.1279 81.288 99.0479 81.288H95.1719C95.1399 81.288 95.1239 81.304 95.1239 81.336C95.1399 81.776 95.1639 82.06 95.1959 82.188C95.2839 82.548 95.4719 82.832 95.7599 83.04C96.0479 83.248 96.4159 83.352 96.8639 83.352C97.1999 83.352 97.4959 83.276 97.7519 83.124C98.0079 82.972 98.2079 82.756 98.3519 82.476C98.3999 82.404 98.4559 82.388 98.5199 82.428L98.9879 82.704C99.0519 82.744 99.0679 82.8 99.0359 82.872C98.8359 83.256 98.5359 83.56 98.1359 83.784C97.7359 84 97.2759 84.108 96.7559 84.108C96.1879 84.1 95.7119 83.964 95.3279 83.7C94.9439 83.436 94.6679 83.068 94.4999 82.596C94.3559 82.212 94.2839 81.66 94.2839 80.94C94.2839 80.604 94.2879 80.332 94.2959 80.124C94.3119 79.908 94.3439 79.716 94.3919 79.548C94.5279 79.028 94.7999 78.612 95.2079 78.3C95.6239 77.988 96.1239 77.832 96.7079 77.832C97.4359 77.832 97.9959 78.016 98.3879 78.384C98.7799 78.752 99.0239 79.272 99.1199 79.944ZM96.7079 78.576C96.3159 78.576 95.9879 78.68 95.7239 78.888C95.4679 79.088 95.2999 79.36 95.2199 79.704C95.1719 79.872 95.1399 80.144 95.1239 80.52C95.1239 80.552 95.1399 80.568 95.1719 80.568H98.2799C98.3119 80.568 98.3279 80.552 98.3279 80.52C98.3119 80.16 98.2879 79.904 98.2559 79.752C98.1679 79.392 97.9879 79.108 97.7159 78.9C97.4519 78.684 97.1159 78.576 96.7079 78.576ZM103.382 77.844C104.022 77.844 104.53 78.032 104.906 78.408C105.29 78.784 105.482 79.288 105.482 79.92V83.88C105.482 83.96 105.442 84 105.362 84H104.75C104.67 84 104.63 83.96 104.63 83.88V80.088C104.63 79.648 104.494 79.288 104.222 79.008C103.958 78.728 103.614 78.588 103.19 78.588C102.75 78.588 102.394 78.724 102.122 78.996C101.85 79.268 101.714 79.624 101.714 80.064V83.88C101.714 83.96 101.674 84 101.594 84H100.982C100.902 84 100.862 83.96 100.862 83.88V78.048C100.862 77.968 100.902 77.928 100.982 77.928H101.594C101.674 77.928 101.714 77.968 101.714 78.048V78.564C101.714 78.58 101.718 78.592 101.726 78.6C101.742 78.608 101.754 78.604 101.762 78.588C102.114 78.092 102.654 77.844 103.382 77.844ZM110.055 78.516C110.055 78.596 110.015 78.636 109.935 78.636H108.579C108.547 78.636 108.531 78.652 108.531 78.684V82.224C108.531 82.608 108.615 82.88 108.783 83.04C108.959 83.192 109.231 83.268 109.599 83.268H109.899C109.979 83.268 110.019 83.308 110.019 83.388V83.88C110.019 83.96 109.979 84 109.899 84C109.803 84.008 109.655 84.012 109.455 84.012C108.879 84.012 108.443 83.904 108.147 83.688C107.851 83.472 107.703 83.072 107.703 82.488V78.684C107.703 78.652 107.687 78.636 107.655 78.636H106.923C106.843 78.636 106.803 78.596 106.803 78.516V78.048C106.803 77.968 106.843 77.928 106.923 77.928H107.655C107.687 77.928 107.703 77.912 107.703 77.88V76.488C107.703 76.408 107.743 76.368 107.823 76.368H108.411C108.491 76.368 108.531 76.408 108.531 76.488V77.88C108.531 77.912 108.547 77.928 108.579 77.928H109.935C110.015 77.928 110.055 77.968 110.055 78.048V78.516ZM115.917 84C115.853 84 115.809 83.968 115.785 83.904L113.481 75.732L113.469 75.696C113.469 75.632 113.509 75.6 113.589 75.6H114.225C114.297 75.6 114.341 75.632 114.357 75.696L116.181 82.272C116.189 82.288 116.197 82.296 116.205 82.296C116.221 82.296 116.233 82.288 116.241 82.272L117.933 75.708C117.949 75.636 117.993 75.6 118.065 75.6H118.713C118.785 75.6 118.829 75.636 118.845 75.708L120.609 82.272C120.617 82.288 120.625 82.296 120.633 82.296C120.649 82.296 120.661 82.288 120.669 82.272L122.493 75.696C122.509 75.632 122.553 75.6 122.625 75.6H123.237C123.277 75.6 123.305 75.612 123.321 75.636C123.345 75.66 123.353 75.692 123.345 75.732L121.077 83.904C121.061 83.968 121.017 84 120.945 84H120.309C120.237 84 120.193 83.964 120.177 83.892L118.425 77.172C118.417 77.156 118.405 77.148 118.389 77.148C118.381 77.148 118.373 77.156 118.365 77.172L116.649 83.892C116.641 83.964 116.597 84 116.517 84H115.917ZM128.71 79.944C128.742 80.168 128.758 80.448 128.758 80.784V81.168C128.758 81.248 128.718 81.288 128.638 81.288H124.762C124.73 81.288 124.714 81.304 124.714 81.336C124.73 81.776 124.754 82.06 124.786 82.188C124.874 82.548 125.062 82.832 125.35 83.04C125.638 83.248 126.006 83.352 126.454 83.352C126.79 83.352 127.086 83.276 127.342 83.124C127.598 82.972 127.798 82.756 127.942 82.476C127.99 82.404 128.046 82.388 128.11 82.428L128.578 82.704C128.642 82.744 128.658 82.8 128.626 82.872C128.426 83.256 128.126 83.56 127.726 83.784C127.326 84 126.866 84.108 126.346 84.108C125.778 84.1 125.302 83.964 124.918 83.7C124.534 83.436 124.258 83.068 124.09 82.596C123.946 82.212 123.874 81.66 123.874 80.94C123.874 80.604 123.878 80.332 123.886 80.124C123.902 79.908 123.934 79.716 123.982 79.548C124.118 79.028 124.39 78.612 124.798 78.3C125.214 77.988 125.714 77.832 126.298 77.832C127.026 77.832 127.586 78.016 127.978 78.384C128.37 78.752 128.614 79.272 128.71 79.944ZM126.298 78.576C125.906 78.576 125.578 78.68 125.314 78.888C125.058 79.088 124.89 79.36 124.81 79.704C124.762 79.872 124.73 80.144 124.714 80.52C124.714 80.552 124.73 80.568 124.762 80.568H127.87C127.902 80.568 127.918 80.552 127.918 80.52C127.902 80.16 127.878 79.904 127.846 79.752C127.758 79.392 127.578 79.108 127.306 78.9C127.042 78.684 126.706 78.576 126.298 78.576ZM135.108 79.944C135.14 80.168 135.156 80.448 135.156 80.784V81.168C135.156 81.248 135.116 81.288 135.036 81.288H131.16C131.128 81.288 131.112 81.304 131.112 81.336C131.128 81.776 131.152 82.06 131.184 82.188C131.272 82.548 131.46 82.832 131.748 83.04C132.036 83.248 132.404 83.352 132.852 83.352C133.188 83.352 133.484 83.276 133.74 83.124C133.996 82.972 134.196 82.756 134.34 82.476C134.388 82.404 134.444 82.388 134.508 82.428L134.976 82.704C135.04 82.744 135.056 82.8 135.024 82.872C134.824 83.256 134.524 83.56 134.124 83.784C133.724 84 133.264 84.108 132.744 84.108C132.176 84.1 131.7 83.964 131.316 83.7C130.932 83.436 130.656 83.068 130.488 82.596C130.344 82.212 130.272 81.66 130.272 80.94C130.272 80.604 130.276 80.332 130.284 80.124C130.3 79.908 130.332 79.716 130.38 79.548C130.516 79.028 130.788 78.612 131.196 78.3C131.612 77.988 132.112 77.832 132.696 77.832C133.424 77.832 133.984 78.016 134.376 78.384C134.768 78.752 135.012 79.272 135.108 79.944ZM132.696 78.576C132.304 78.576 131.976 78.68 131.712 78.888C131.456 79.088 131.288 79.36 131.208 79.704C131.16 79.872 131.128 80.144 131.112 80.52C131.112 80.552 131.128 80.568 131.16 80.568H134.268C134.3 80.568 134.316 80.552 134.316 80.52C134.3 80.16 134.276 79.904 134.244 79.752C134.156 79.392 133.976 79.108 133.704 78.9C133.44 78.684 133.104 78.576 132.696 78.576ZM136.971 84C136.891 84 136.851 83.96 136.851 83.88V75.72C136.851 75.64 136.891 75.6 136.971 75.6H137.583C137.663 75.6 137.703 75.64 137.703 75.72V80.628C137.703 80.644 137.707 80.656 137.715 80.664C137.731 80.672 137.747 80.668 137.763 80.652L140.307 77.988C140.347 77.948 140.395 77.928 140.451 77.928H141.171C141.219 77.928 141.251 77.944 141.267 77.976C141.283 78.008 141.275 78.04 141.243 78.072L139.707 79.776C139.691 79.792 139.687 79.812 139.695 79.836L141.531 83.856L141.543 83.904C141.543 83.968 141.507 84 141.435 84H140.787C140.723 84 140.679 83.968 140.655 83.904L139.107 80.4C139.091 80.368 139.071 80.364 139.047 80.388L137.727 81.78C137.711 81.796 137.703 81.816 137.703 81.84V83.88C137.703 83.96 137.663 84 137.583 84H136.971Z" fill="white"/>
<rect x="23.2756" y="138.629" width="15.2634" height="26.9355" rx="7.63172" fill="white"/>
<rect x="48.4155" y="117.979" width="15.2634" height="47.586" rx="7.63172" fill="white"/>
<rect x="73.5552" y="127.855" width="15.2634" height="37.7097" rx="7.63172" fill="white"/>
<rect x="98.6951" y="109" width="15.2634" height="56.5645" rx="7.63172" fill="url(#paint3_linear_820_4944)"/>
<rect x="123.835" y="123.366" width="15.2634" height="42.1989" rx="7.63172" fill="white"/>
<rect x="148.975" y="138.629" width="16.1613" height="26.9355" rx="8.08065" fill="white"/>
<rect x="175.012" y="138.629" width="15.2634" height="26.9355" rx="7.63172" fill="white"/>
<path d="M25.3114 178.118C24.7087 178.118 24.2314 177.982 23.8794 177.71C23.5327 177.438 23.3594 177.075 23.3594 176.622V176.374C23.3594 176.32 23.386 176.294 23.4394 176.294H23.8314C23.8847 176.294 23.9114 176.32 23.9114 176.374V176.59C23.9114 176.899 24.0394 177.15 24.2954 177.342C24.5514 177.528 24.906 177.622 25.3594 177.622C25.77 177.622 26.082 177.536 26.2954 177.366C26.5087 177.19 26.6154 176.958 26.6154 176.67C26.6154 176.483 26.5647 176.323 26.4634 176.19C26.3674 176.056 26.2154 175.931 26.0074 175.814C25.8047 175.696 25.5167 175.56 25.1434 175.406C24.7434 175.246 24.4314 175.107 24.2074 174.99C23.9887 174.867 23.81 174.712 23.6714 174.526C23.538 174.334 23.4714 174.094 23.4714 173.806C23.4714 173.358 23.626 173.011 23.9354 172.766C24.25 172.515 24.6794 172.39 25.2234 172.39C25.8154 172.39 26.282 172.528 26.6234 172.806C26.9647 173.083 27.1354 173.451 27.1354 173.91V174.086C27.1354 174.139 27.1087 174.166 27.0554 174.166H26.6554C26.602 174.166 26.5754 174.139 26.5754 174.086V173.942C26.5754 173.632 26.4527 173.379 26.2074 173.182C25.9674 172.984 25.6314 172.886 25.1994 172.886C24.8207 172.886 24.53 172.963 24.3274 173.118C24.1247 173.272 24.0234 173.496 24.0234 173.79C24.0234 173.982 24.0714 174.142 24.1674 174.27C24.2687 174.392 24.41 174.502 24.5914 174.598C24.778 174.688 25.0634 174.808 25.4474 174.958C25.8367 175.118 26.1487 175.267 26.3834 175.406C26.6234 175.544 26.8154 175.715 26.9594 175.918C27.1087 176.115 27.1834 176.358 27.1834 176.646C27.1834 177.094 27.018 177.451 26.6874 177.718C26.3567 177.984 25.898 178.118 25.3114 178.118ZM31.6872 178.054C31.6392 178.054 31.6072 178.032 31.5912 177.99L31.2712 176.982C31.2659 176.966 31.2552 176.958 31.2392 176.958H28.8472C28.8312 176.958 28.8206 176.966 28.8152 176.982L28.4952 177.99C28.4792 178.032 28.4472 178.054 28.3992 178.054H27.9672C27.9086 178.054 27.8872 178.024 27.9032 177.966L29.6712 172.518C29.6872 172.475 29.7192 172.454 29.7672 172.454H30.3112C30.3592 172.454 30.3912 172.475 30.4072 172.518L32.1832 177.966L32.1912 177.998C32.1912 178.035 32.1672 178.054 32.1192 178.054H31.6872ZM28.9752 176.454C28.9699 176.464 28.9699 176.475 28.9752 176.486C28.9859 176.491 28.9966 176.494 29.0072 176.494H31.0712C31.0819 176.494 31.0899 176.491 31.0952 176.486C31.1059 176.475 31.1086 176.464 31.1032 176.454L30.0632 173.19C30.0579 173.179 30.0499 173.174 30.0392 173.174C30.0286 173.174 30.0206 173.179 30.0152 173.19L28.9752 176.454ZM36.0792 172.454C36.1325 172.454 36.1592 172.48 36.1592 172.534V172.878C36.1592 172.931 36.1325 172.958 36.0792 172.958H34.5112C34.4898 172.958 34.4792 172.968 34.4792 172.99V177.974C34.4792 178.027 34.4525 178.054 34.3992 178.054H33.9912C33.9378 178.054 33.9112 178.027 33.9112 177.974V172.99C33.9112 172.968 33.9005 172.958 33.8792 172.958H32.3752C32.3218 172.958 32.2952 172.931 32.2952 172.878V172.534C32.2952 172.48 32.3218 172.454 32.3752 172.454H36.0792Z" fill="white"/>
<path d="M50.5997 178.118C49.997 178.118 49.5197 177.982 49.1677 177.71C48.821 177.438 48.6477 177.075 48.6477 176.622V176.374C48.6477 176.32 48.6744 176.294 48.7277 176.294H49.1197C49.173 176.294 49.1997 176.32 49.1997 176.374V176.59C49.1997 176.899 49.3277 177.15 49.5837 177.342C49.8397 177.528 50.1944 177.622 50.6477 177.622C51.0584 177.622 51.3704 177.536 51.5837 177.366C51.797 177.19 51.9037 176.958 51.9037 176.67C51.9037 176.483 51.853 176.323 51.7517 176.19C51.6557 176.056 51.5037 175.931 51.2957 175.814C51.093 175.696 50.805 175.56 50.4317 175.406C50.0317 175.246 49.7197 175.107 49.4957 174.99C49.277 174.867 49.0984 174.712 48.9597 174.526C48.8264 174.334 48.7597 174.094 48.7597 173.806C48.7597 173.358 48.9144 173.011 49.2237 172.766C49.5384 172.515 49.9677 172.39 50.5117 172.39C51.1037 172.39 51.5704 172.528 51.9117 172.806C52.253 173.083 52.4237 173.451 52.4237 173.91V174.086C52.4237 174.139 52.397 174.166 52.3437 174.166H51.9437C51.8904 174.166 51.8637 174.139 51.8637 174.086V173.942C51.8637 173.632 51.741 173.379 51.4957 173.182C51.2557 172.984 50.9197 172.886 50.4877 172.886C50.109 172.886 49.8184 172.963 49.6157 173.118C49.413 173.272 49.3117 173.496 49.3117 173.79C49.3117 173.982 49.3597 174.142 49.4557 174.27C49.557 174.392 49.6984 174.502 49.8797 174.598C50.0664 174.688 50.3517 174.808 50.7357 174.958C51.125 175.118 51.437 175.267 51.6717 175.406C51.9117 175.544 52.1037 175.715 52.2477 175.918C52.397 176.115 52.4717 176.358 52.4717 176.646C52.4717 177.094 52.3064 177.451 51.9757 177.718C51.645 177.984 51.1864 178.118 50.5997 178.118ZM55.4956 178.118C55.1222 178.118 54.7916 178.043 54.5036 177.894C54.2156 177.744 53.9916 177.536 53.8316 177.27C53.6716 176.998 53.5916 176.683 53.5916 176.326V172.534C53.5916 172.48 53.6182 172.454 53.6716 172.454H54.0796C54.1329 172.454 54.1596 172.48 54.1596 172.534V176.342C54.1596 176.72 54.2822 177.03 54.5276 177.27C54.7729 177.504 55.0956 177.622 55.4956 177.622C55.8956 177.622 56.2182 177.504 56.4636 177.27C56.7089 177.03 56.8316 176.72 56.8316 176.342V172.534C56.8316 172.48 56.8582 172.454 56.9116 172.454H57.3196C57.3729 172.454 57.3996 172.48 57.3996 172.534V176.326C57.3996 176.683 57.3196 176.998 57.1596 177.27C57.0049 177.536 56.7836 177.744 56.4956 177.894C56.2076 178.043 55.8742 178.118 55.4956 178.118ZM62.1791 172.534C62.1791 172.48 62.2057 172.454 62.2591 172.454H62.6671C62.7204 172.454 62.7471 172.48 62.7471 172.534V177.974C62.7471 178.027 62.7204 178.054 62.6671 178.054H62.2671C62.2297 178.054 62.1977 178.035 62.1711 177.998L59.4431 173.558C59.4377 173.542 59.4297 173.536 59.4191 173.542C59.4084 173.542 59.4031 173.55 59.4031 173.566L59.4111 177.974C59.4111 178.027 59.3844 178.054 59.3311 178.054H58.9231C58.8697 178.054 58.8431 178.027 58.8431 177.974V172.534C58.8431 172.48 58.8697 172.454 58.9231 172.454H59.3231C59.3604 172.454 59.3924 172.472 59.4191 172.51L62.1471 176.95C62.1524 176.966 62.1604 176.974 62.1711 176.974C62.1817 176.968 62.1871 176.958 62.1871 176.942L62.1791 172.534Z" fill="white"/>
<path d="M76.9397 172.51C76.9663 172.472 76.9983 172.454 77.0357 172.454H77.4517C77.505 172.454 77.5317 172.48 77.5317 172.534V177.974C77.5317 178.027 77.505 178.054 77.4517 178.054H77.0437C76.9903 178.054 76.9637 178.027 76.9637 177.974V173.526C76.9637 173.51 76.9583 173.499 76.9477 173.494C76.937 173.488 76.929 173.494 76.9237 173.51L75.6197 175.51C75.593 175.547 75.561 175.566 75.5237 175.566H75.3157C75.2783 175.566 75.2463 175.55 75.2197 175.518L73.9157 173.534C73.9103 173.518 73.9023 173.512 73.8917 173.518C73.881 173.523 73.8757 173.534 73.8757 173.55V177.974C73.8757 178.027 73.849 178.054 73.7957 178.054H73.3877C73.3343 178.054 73.3077 178.027 73.3077 177.974V172.534C73.3077 172.48 73.3343 172.454 73.3877 172.454H73.8037C73.8463 172.454 73.8783 172.47 73.8997 172.502L75.4037 174.782C75.409 174.787 75.417 174.79 75.4277 174.79C75.4383 174.79 75.4463 174.787 75.4517 174.782L76.9397 172.51ZM80.7544 178.118C80.3757 178.118 80.0424 178.04 79.7544 177.886C79.4664 177.731 79.2424 177.515 79.0824 177.238C78.9277 176.955 78.8504 176.63 78.8504 176.262V174.246C78.8504 173.878 78.9277 173.555 79.0824 173.278C79.2424 172.995 79.4664 172.776 79.7544 172.622C80.0424 172.467 80.3757 172.39 80.7544 172.39C81.1331 172.39 81.4664 172.467 81.7544 172.622C82.0477 172.776 82.2717 172.995 82.4264 173.278C82.5864 173.555 82.6664 173.878 82.6664 174.246V176.262C82.6664 176.63 82.5864 176.955 82.4264 177.238C82.2717 177.515 82.0477 177.731 81.7544 177.886C81.4664 178.04 81.1331 178.118 80.7544 178.118ZM80.7544 177.63C81.1597 177.63 81.4851 177.507 81.7304 177.262C81.9757 177.016 82.0984 176.691 82.0984 176.286V174.238C82.0984 173.832 81.9757 173.507 81.7304 173.262C81.4851 173.011 81.1597 172.886 80.7544 172.886C80.3544 172.886 80.0317 173.011 79.7864 173.262C79.5411 173.507 79.4184 173.832 79.4184 174.238V176.286C79.4184 176.691 79.5411 177.016 79.7864 177.262C80.0317 177.507 80.3544 177.63 80.7544 177.63ZM87.339 172.534C87.339 172.48 87.3656 172.454 87.419 172.454H87.827C87.8803 172.454 87.907 172.48 87.907 172.534V177.974C87.907 178.027 87.8803 178.054 87.827 178.054H87.427C87.3896 178.054 87.3576 178.035 87.331 177.998L84.603 173.558C84.5976 173.542 84.5896 173.536 84.579 173.542C84.5683 173.542 84.563 173.55 84.563 173.566L84.571 177.974C84.571 178.027 84.5443 178.054 84.491 178.054H84.083C84.0296 178.054 84.003 178.027 84.003 177.974V172.534C84.003 172.48 84.0296 172.454 84.083 172.454H84.483C84.5203 172.454 84.5523 172.472 84.579 172.51L87.307 176.95C87.3123 176.966 87.3203 176.974 87.331 176.974C87.3416 176.968 87.347 176.958 87.347 176.942L87.339 172.534Z" fill="white"/>
<path d="M103.377 172.454C103.43 172.454 103.457 172.48 103.457 172.534V172.878C103.457 172.931 103.43 172.958 103.377 172.958H101.809C101.787 172.958 101.777 172.968 101.777 172.99V177.974C101.777 178.027 101.75 178.054 101.697 178.054H101.289C101.235 178.054 101.209 178.027 101.209 177.974V172.99C101.209 172.968 101.198 172.958 101.177 172.958H99.6728C99.6194 172.958 99.5928 172.931 99.5928 172.878V172.534C99.5928 172.48 99.6194 172.454 99.6728 172.454H103.377ZM106.395 178.118C106.022 178.118 105.691 178.043 105.403 177.894C105.115 177.744 104.891 177.536 104.731 177.27C104.571 176.998 104.491 176.683 104.491 176.326V172.534C104.491 172.48 104.518 172.454 104.571 172.454H104.979C105.033 172.454 105.059 172.48 105.059 172.534V176.342C105.059 176.72 105.182 177.03 105.427 177.27C105.673 177.504 105.995 177.622 106.395 177.622C106.795 177.622 107.118 177.504 107.363 177.27C107.609 177.03 107.731 176.72 107.731 176.342V172.534C107.731 172.48 107.758 172.454 107.811 172.454H108.219C108.273 172.454 108.299 172.48 108.299 172.534V176.326C108.299 176.683 108.219 176.998 108.059 177.27C107.905 177.536 107.683 177.744 107.395 177.894C107.107 178.043 106.774 178.118 106.395 178.118ZM113.367 172.87C113.367 172.923 113.34 172.95 113.287 172.95H110.343C110.322 172.95 110.311 172.96 110.311 172.982V174.958C110.311 174.979 110.322 174.99 110.343 174.99H112.407C112.46 174.99 112.487 175.016 112.487 175.07V175.406C112.487 175.459 112.46 175.486 112.407 175.486H110.343C110.322 175.486 110.311 175.496 110.311 175.518V177.526C110.311 177.547 110.322 177.558 110.343 177.558H113.287C113.34 177.558 113.367 177.584 113.367 177.638V177.974C113.367 178.027 113.34 178.054 113.287 178.054H109.823C109.77 178.054 109.743 178.027 109.743 177.974V172.534C109.743 172.48 109.77 172.454 109.823 172.454H113.287C113.34 172.454 113.367 172.48 113.367 172.534V172.87Z" fill="#75BFC0"/>
<path d="M125.28 178.054C125.237 178.054 125.208 178.032 125.192 177.99L123.656 172.542L123.648 172.518C123.648 172.475 123.675 172.454 123.728 172.454H124.152C124.2 172.454 124.229 172.475 124.24 172.518L125.456 176.902C125.461 176.912 125.467 176.918 125.472 176.918C125.483 176.918 125.491 176.912 125.496 176.902L126.624 172.526C126.635 172.478 126.664 172.454 126.712 172.454H127.144C127.192 172.454 127.221 172.478 127.232 172.526L128.408 176.902C128.413 176.912 128.419 176.918 128.424 176.918C128.435 176.918 128.443 176.912 128.448 176.902L129.664 172.518C129.675 172.475 129.704 172.454 129.752 172.454H130.16C130.187 172.454 130.205 172.462 130.216 172.478C130.232 172.494 130.237 172.515 130.232 172.542L128.72 177.99C128.709 178.032 128.68 178.054 128.632 178.054H128.208C128.16 178.054 128.131 178.03 128.12 177.982L126.952 173.502C126.947 173.491 126.939 173.486 126.928 173.486C126.923 173.486 126.917 173.491 126.912 173.502L125.768 177.982C125.763 178.03 125.733 178.054 125.68 178.054H125.28ZM134.722 172.87C134.722 172.923 134.696 172.95 134.642 172.95H131.698C131.677 172.95 131.666 172.96 131.666 172.982V174.958C131.666 174.979 131.677 174.99 131.698 174.99H133.762C133.816 174.99 133.842 175.016 133.842 175.07V175.406C133.842 175.459 133.816 175.486 133.762 175.486H131.698C131.677 175.486 131.666 175.496 131.666 175.518V177.526C131.666 177.547 131.677 177.558 131.698 177.558H134.642C134.696 177.558 134.722 177.584 134.722 177.638V177.974C134.722 178.027 134.696 178.054 134.642 178.054H131.178C131.125 178.054 131.098 178.027 131.098 177.974V172.534C131.098 172.48 131.125 172.454 131.178 172.454H134.642C134.696 172.454 134.722 172.48 134.722 172.534V172.87ZM136.022 178.054C135.969 178.054 135.942 178.027 135.942 177.974V172.534C135.942 172.48 135.969 172.454 136.022 172.454H137.91C138.438 172.454 138.857 172.592 139.166 172.87C139.481 173.147 139.638 173.523 139.638 173.998V176.51C139.638 176.984 139.481 177.36 139.166 177.638C138.857 177.915 138.438 178.054 137.91 178.054H136.022ZM136.51 177.526C136.51 177.547 136.521 177.558 136.542 177.558H137.934C138.281 177.558 138.555 177.456 138.758 177.254C138.966 177.051 139.07 176.779 139.07 176.438V174.078C139.07 173.731 138.969 173.456 138.766 173.254C138.563 173.051 138.286 172.95 137.934 172.95H136.542C136.521 172.95 136.51 172.96 136.51 172.982V177.526Z" fill="white"/>
<path d="M153.461 172.454C153.514 172.454 153.541 172.48 153.541 172.534V172.878C153.541 172.931 153.514 172.958 153.461 172.958H151.893C151.872 172.958 151.861 172.968 151.861 172.99V177.974C151.861 178.027 151.834 178.054 151.781 178.054H151.373C151.32 178.054 151.293 178.027 151.293 177.974V172.99C151.293 172.968 151.282 172.958 151.261 172.958H149.757C149.704 172.958 149.677 172.931 149.677 172.878V172.534C149.677 172.48 149.704 172.454 149.757 172.454H153.461ZM157.824 172.534C157.824 172.48 157.85 172.454 157.904 172.454H158.312C158.365 172.454 158.392 172.48 158.392 172.534V177.974C158.392 178.027 158.365 178.054 158.312 178.054H157.904C157.85 178.054 157.824 178.027 157.824 177.974V175.518C157.824 175.496 157.813 175.486 157.792 175.486H155.24C155.218 175.486 155.208 175.496 155.208 175.518V177.974C155.208 178.027 155.181 178.054 155.128 178.054H154.72C154.666 178.054 154.64 178.027 154.64 177.974V172.534C154.64 172.48 154.666 172.454 154.72 172.454H155.128C155.181 172.454 155.208 172.48 155.208 172.534V174.958C155.208 174.979 155.218 174.99 155.24 174.99H157.792C157.813 174.99 157.824 174.979 157.824 174.958V172.534ZM161.714 178.118C161.341 178.118 161.01 178.043 160.722 177.894C160.434 177.744 160.21 177.536 160.05 177.27C159.89 176.998 159.81 176.683 159.81 176.326V172.534C159.81 172.48 159.837 172.454 159.89 172.454H160.298C160.351 172.454 160.378 172.48 160.378 172.534V176.342C160.378 176.72 160.501 177.03 160.746 177.27C160.991 177.504 161.314 177.622 161.714 177.622C162.114 177.622 162.437 177.504 162.682 177.27C162.927 177.03 163.05 176.72 163.05 176.342V172.534C163.05 172.48 163.077 172.454 163.13 172.454H163.538C163.591 172.454 163.618 172.48 163.618 172.534V176.326C163.618 176.683 163.538 176.998 163.378 177.27C163.223 177.536 163.002 177.744 162.714 177.894C162.426 178.043 162.093 178.118 161.714 178.118Z" fill="white"/>
<path d="M181.302 172.87C181.302 172.923 181.275 172.95 181.222 172.95H178.286C178.265 172.95 178.254 172.96 178.254 172.982V174.958C178.254 174.979 178.265 174.99 178.286 174.99H180.342C180.395 174.99 180.422 175.016 180.422 175.07V175.406C180.422 175.459 180.395 175.486 180.342 175.486H178.286C178.265 175.486 178.254 175.496 178.254 175.518V177.974C178.254 178.027 178.227 178.054 178.174 178.054H177.766C177.713 178.054 177.686 178.027 177.686 177.974V172.534C177.686 172.48 177.713 172.454 177.766 172.454H181.222C181.275 172.454 181.302 172.48 181.302 172.534V172.87ZM185.497 178.054C185.449 178.054 185.417 178.035 185.401 177.998L184.225 175.518C184.219 175.502 184.209 175.494 184.193 175.494H182.833C182.811 175.494 182.801 175.504 182.801 175.526V177.974C182.801 178.027 182.774 178.054 182.721 178.054H182.313C182.259 178.054 182.233 178.027 182.233 177.974V172.534C182.233 172.48 182.259 172.454 182.313 172.454H184.385C184.843 172.454 185.214 172.598 185.497 172.886C185.779 173.168 185.921 173.539 185.921 173.998C185.921 174.371 185.819 174.688 185.617 174.95C185.414 175.211 185.139 175.379 184.793 175.454C184.771 175.464 184.766 175.478 184.777 175.494L185.977 177.958C185.982 177.968 185.985 177.982 185.985 177.998C185.985 178.035 185.963 178.054 185.921 178.054H185.497ZM182.833 172.95C182.811 172.95 182.801 172.96 182.801 172.982V175.006C182.801 175.027 182.811 175.038 182.833 175.038H184.321C184.63 175.038 184.881 174.942 185.073 174.75C185.265 174.558 185.361 174.307 185.361 173.998C185.361 173.688 185.265 173.438 185.073 173.246C184.881 173.048 184.63 172.95 184.321 172.95H182.833ZM187.211 178.054C187.158 178.054 187.131 178.027 187.131 177.974V172.534C187.131 172.48 187.158 172.454 187.211 172.454H187.619C187.672 172.454 187.699 172.48 187.699 172.534V177.974C187.699 178.027 187.672 178.054 187.619 178.054H187.211Z" fill="white"/>
</g>
<path d="M51.675 244.112C50.975 244.112 50.359 243.977 49.827 243.706C49.295 243.426 48.8843 243.034 48.595 242.53C48.3056 242.026 48.161 241.447 48.161 240.794V237.406C48.161 236.743 48.3056 236.165 48.595 235.67C48.8843 235.166 49.295 234.779 49.827 234.508C50.359 234.228 50.975 234.088 51.675 234.088C52.3656 234.088 52.9723 234.223 53.495 234.494C54.027 234.765 54.4376 235.133 54.727 235.6C55.0163 236.067 55.161 236.594 55.161 237.182V237.294C55.161 237.341 55.1423 237.383 55.105 237.42C55.077 237.448 55.0396 237.462 54.993 237.462H53.719C53.6723 237.462 53.6303 237.448 53.593 237.42C53.565 237.383 53.551 237.341 53.551 237.294V237.224C53.551 236.72 53.3783 236.305 53.033 235.978C52.697 235.651 52.2443 235.488 51.675 235.488C51.1056 235.488 50.6483 235.661 50.303 236.006C49.9576 236.342 49.785 236.79 49.785 237.35V240.85C49.785 241.41 49.967 241.863 50.331 242.208C50.695 242.544 51.1663 242.712 51.745 242.712C52.305 242.712 52.7436 242.567 53.061 242.278C53.3876 241.979 53.551 241.573 53.551 241.06V240.192C53.551 240.145 53.5276 240.122 53.481 240.122H51.759C51.7123 240.122 51.6703 240.108 51.633 240.08C51.605 240.043 51.591 240.001 51.591 239.954V238.918C51.591 238.871 51.605 238.834 51.633 238.806C51.6703 238.769 51.7123 238.75 51.759 238.75H54.993C55.0396 238.75 55.077 238.769 55.105 238.806C55.1423 238.834 55.161 238.871 55.161 238.918V240.71C55.161 241.783 54.8436 242.619 54.209 243.216C53.5836 243.813 52.739 244.112 51.675 244.112ZM59.8552 244.112C59.1179 244.112 58.4832 243.925 57.9512 243.552C57.4286 243.179 57.0599 242.661 56.8452 241.998C56.6866 241.494 56.6072 240.962 56.6072 240.402C56.6072 239.805 56.6819 239.273 56.8312 238.806C57.0459 238.153 57.4192 237.644 57.9512 237.28C58.4832 236.916 59.1226 236.734 59.8692 236.734C60.5786 236.734 61.1899 236.916 61.7032 237.28C62.2259 237.644 62.5946 238.148 62.8092 238.792C62.9772 239.24 63.0612 239.772 63.0612 240.388C63.0612 240.976 62.9819 241.508 62.8232 241.984C62.6086 242.647 62.2399 243.169 61.7172 243.552C61.1946 243.925 60.5739 244.112 59.8552 244.112ZM59.8552 242.712C60.2006 242.712 60.4946 242.614 60.7372 242.418C60.9892 242.222 61.1712 241.947 61.2832 241.592C61.3766 241.284 61.4232 240.892 61.4232 240.416C61.4232 239.912 61.3766 239.52 61.2832 239.24C61.1806 238.885 61.0032 238.615 60.7512 238.428C60.4992 238.232 60.1912 238.134 59.8272 238.134C59.4819 238.134 59.1832 238.232 58.9312 238.428C58.6792 238.615 58.4972 238.885 58.3852 239.24C58.2919 239.567 58.2452 239.959 58.2452 240.416C58.2452 240.873 58.2919 241.265 58.3852 241.592C58.4879 241.947 58.6652 242.222 58.9172 242.418C59.1786 242.614 59.4912 242.712 59.8552 242.712ZM71.1933 237.994C71.1933 238.041 71.1746 238.083 71.1373 238.12C71.1093 238.148 71.0719 238.162 71.0253 238.162H69.5973C69.5506 238.162 69.5273 238.185 69.5273 238.232V241.606C69.5273 241.961 69.6019 242.217 69.7513 242.376C69.9099 242.535 70.1573 242.614 70.4933 242.614H70.9133C70.9599 242.614 70.9973 242.633 71.0253 242.67C71.0626 242.698 71.0813 242.735 71.0813 242.782V243.832C71.0813 243.935 71.0253 243.995 70.9133 244.014L70.1853 244.028C69.4479 244.028 68.8973 243.902 68.5333 243.65C68.1693 243.398 67.9826 242.922 67.9733 242.222V238.232C67.9733 238.185 67.9499 238.162 67.9033 238.162H67.1053C67.0586 238.162 67.0166 238.148 66.9793 238.12C66.9513 238.083 66.9373 238.041 66.9373 237.994V237.014C66.9373 236.967 66.9513 236.93 66.9793 236.902C67.0166 236.865 67.0586 236.846 67.1053 236.846H67.9033C67.9499 236.846 67.9733 236.823 67.9733 236.776V235.138C67.9733 235.091 67.9873 235.054 68.0153 235.026C68.0526 234.989 68.0946 234.97 68.1413 234.97H69.3593C69.4059 234.97 69.4433 234.989 69.4713 235.026C69.5086 235.054 69.5273 235.091 69.5273 235.138V236.776C69.5273 236.823 69.5506 236.846 69.5973 236.846H71.0253C71.0719 236.846 71.1093 236.865 71.1373 236.902C71.1746 236.93 71.1933 236.967 71.1933 237.014V237.994ZM75.5369 244.112C74.7995 244.112 74.1649 243.925 73.6329 243.552C73.1102 243.179 72.7415 242.661 72.5269 241.998C72.3682 241.494 72.2889 240.962 72.2889 240.402C72.2889 239.805 72.3635 239.273 72.5129 238.806C72.7275 238.153 73.1009 237.644 73.6329 237.28C74.1649 236.916 74.8042 236.734 75.5509 236.734C76.2602 236.734 76.8715 236.916 77.3849 237.28C77.9075 237.644 78.2762 238.148 78.4909 238.792C78.6589 239.24 78.7429 239.772 78.7429 240.388C78.7429 240.976 78.6635 241.508 78.5049 241.984C78.2902 242.647 77.9215 243.169 77.3989 243.552C76.8762 243.925 76.2555 244.112 75.5369 244.112ZM75.5369 242.712C75.8822 242.712 76.1762 242.614 76.4189 242.418C76.6709 242.222 76.8529 241.947 76.9649 241.592C77.0582 241.284 77.1049 240.892 77.1049 240.416C77.1049 239.912 77.0582 239.52 76.9649 239.24C76.8622 238.885 76.6849 238.615 76.4329 238.428C76.1809 238.232 75.8729 238.134 75.5089 238.134C75.1635 238.134 74.8649 238.232 74.6129 238.428C74.3609 238.615 74.1789 238.885 74.0669 239.24C73.9735 239.567 73.9269 239.959 73.9269 240.416C73.9269 240.873 73.9735 241.265 74.0669 241.592C74.1695 241.947 74.3469 242.222 74.5989 242.418C74.8602 242.614 75.1729 242.712 75.5369 242.712ZM86.5109 244.112C85.8109 244.112 85.1949 243.977 84.6629 243.706C84.1309 243.426 83.7202 243.039 83.4309 242.544C83.1416 242.049 82.9969 241.475 82.9969 240.822V237.364C82.9969 236.711 83.1416 236.137 83.4309 235.642C83.7202 235.147 84.1309 234.765 84.6629 234.494C85.1949 234.223 85.8109 234.088 86.5109 234.088C87.2016 234.088 87.8129 234.219 88.3449 234.48C88.8769 234.741 89.2876 235.11 89.5769 235.586C89.8662 236.062 90.0109 236.613 90.0109 237.238C90.0109 237.285 89.9922 237.327 89.9549 237.364C89.9269 237.392 89.8896 237.406 89.8429 237.406L88.5549 237.476C88.4429 237.476 88.3869 237.425 88.3869 237.322C88.3869 236.771 88.2142 236.328 87.8689 235.992C87.5329 235.656 87.0802 235.488 86.5109 235.488C85.9416 235.488 85.4842 235.656 85.1389 235.992C84.7936 236.328 84.6209 236.771 84.6209 237.322V240.892C84.6209 241.433 84.7936 241.872 85.1389 242.208C85.4842 242.544 85.9416 242.712 86.5109 242.712C87.0802 242.712 87.5329 242.549 87.8689 242.222C88.2142 241.886 88.3869 241.443 88.3869 240.892C88.3869 240.789 88.4429 240.738 88.5549 240.738L89.8429 240.794C89.8896 240.794 89.9269 240.808 89.9549 240.836C89.9922 240.864 90.0109 240.897 90.0109 240.934C90.0109 241.569 89.8662 242.129 89.5769 242.614C89.2876 243.09 88.8769 243.459 88.3449 243.72C87.8129 243.981 87.2016 244.112 86.5109 244.112ZM94.6228 244.112C93.8855 244.112 93.2508 243.925 92.7188 243.552C92.1961 243.179 91.8275 242.661 91.6128 241.998C91.4541 241.494 91.3748 240.962 91.3748 240.402C91.3748 239.805 91.4495 239.273 91.5988 238.806C91.8135 238.153 92.1868 237.644 92.7188 237.28C93.2508 236.916 93.8901 236.734 94.6368 236.734C95.3461 236.734 95.9575 236.916 96.4708 237.28C96.9935 237.644 97.3621 238.148 97.5768 238.792C97.7448 239.24 97.8288 239.772 97.8288 240.388C97.8288 240.976 97.7495 241.508 97.5908 241.984C97.3761 242.647 97.0075 243.169 96.4848 243.552C95.9621 243.925 95.3415 244.112 94.6228 244.112ZM94.6228 242.712C94.9681 242.712 95.2621 242.614 95.5048 242.418C95.7568 242.222 95.9388 241.947 96.0508 241.592C96.1441 241.284 96.1908 240.892 96.1908 240.416C96.1908 239.912 96.1441 239.52 96.0508 239.24C95.9481 238.885 95.7708 238.615 95.5188 238.428C95.2668 238.232 94.9588 238.134 94.5948 238.134C94.2495 238.134 93.9508 238.232 93.6988 238.428C93.4468 238.615 93.2648 238.885 93.1528 239.24C93.0595 239.567 93.0128 239.959 93.0128 240.416C93.0128 240.873 93.0595 241.265 93.1528 241.592C93.2555 241.947 93.4328 242.222 93.6848 242.418C93.9461 242.614 94.2588 242.712 94.6228 242.712ZM103.592 237.014C103.592 236.967 103.606 236.93 103.634 236.902C103.671 236.865 103.713 236.846 103.76 236.846H105.034C105.081 236.846 105.118 236.865 105.146 236.902C105.183 236.93 105.202 236.967 105.202 237.014V243.832C105.202 243.879 105.183 243.921 105.146 243.958C105.118 243.986 105.081 244 105.034 244H103.76C103.713 244 103.671 243.986 103.634 243.958C103.606 243.921 103.592 243.879 103.592 243.832V243.384C103.592 243.356 103.583 243.337 103.564 243.328C103.545 243.319 103.527 243.328 103.508 243.356C103.125 243.851 102.551 244.098 101.786 244.098C101.077 244.098 100.479 243.893 99.9941 243.482C99.5181 243.071 99.2801 242.488 99.2801 241.732V237.014C99.2801 236.967 99.2941 236.93 99.3221 236.902C99.3594 236.865 99.4014 236.846 99.4481 236.846H100.736C100.783 236.846 100.82 236.865 100.848 236.902C100.885 236.93 100.904 236.967 100.904 237.014V241.27C100.904 241.709 101.016 242.059 101.24 242.32C101.473 242.581 101.795 242.712 102.206 242.712C102.626 242.712 102.962 242.581 103.214 242.32C103.466 242.059 103.592 241.709 103.592 241.27V237.014ZM110.368 236.734C111.124 236.734 111.726 236.958 112.174 237.406C112.632 237.854 112.86 238.465 112.86 239.24V243.832C112.86 243.879 112.842 243.921 112.804 243.958C112.776 243.986 112.739 244 112.692 244H111.404C111.358 244 111.316 243.986 111.278 243.958C111.25 243.921 111.236 243.879 111.236 243.832V239.576C111.236 239.147 111.115 238.801 110.872 238.54C110.63 238.269 110.308 238.134 109.906 238.134C109.505 238.134 109.178 238.265 108.926 238.526C108.684 238.787 108.562 239.133 108.562 239.562V243.832C108.562 243.879 108.544 243.921 108.506 243.958C108.478 243.986 108.441 244 108.394 244H107.106C107.06 244 107.018 243.986 106.98 243.958C106.952 243.921 106.938 243.879 106.938 243.832V237.014C106.938 236.967 106.952 236.93 106.98 236.902C107.018 236.865 107.06 236.846 107.106 236.846H108.394C108.441 236.846 108.478 236.865 108.506 236.902C108.544 236.93 108.562 236.967 108.562 237.014V237.462C108.562 237.49 108.572 237.509 108.59 237.518C108.609 237.527 108.623 237.518 108.632 237.49C109.015 236.986 109.594 236.734 110.368 236.734ZM118.348 237.994C118.348 238.041 118.329 238.083 118.292 238.12C118.264 238.148 118.226 238.162 118.18 238.162H116.752C116.705 238.162 116.682 238.185 116.682 238.232V241.606C116.682 241.961 116.756 242.217 116.906 242.376C117.064 242.535 117.312 242.614 117.648 242.614H118.068C118.114 242.614 118.152 242.633 118.18 242.67C118.217 242.698 118.236 242.735 118.236 242.782V243.832C118.236 243.935 118.18 243.995 118.068 244.014L117.34 244.028C116.602 244.028 116.052 243.902 115.688 243.65C115.324 243.398 115.137 242.922 115.128 242.222V238.232C115.128 238.185 115.104 238.162 115.058 238.162H114.26C114.213 238.162 114.171 238.148 114.134 238.12C114.106 238.083 114.092 238.041 114.092 237.994V237.014C114.092 236.967 114.106 236.93 114.134 236.902C114.171 236.865 114.213 236.846 114.26 236.846H115.058C115.104 236.846 115.128 236.823 115.128 236.776V235.138C115.128 235.091 115.142 235.054 115.17 235.026C115.207 234.989 115.249 234.97 115.296 234.97H116.514C116.56 234.97 116.598 234.989 116.626 235.026C116.663 235.054 116.682 235.091 116.682 235.138V236.776C116.682 236.823 116.705 236.846 116.752 236.846H118.18C118.226 236.846 118.264 236.865 118.292 236.902C118.329 236.93 118.348 236.967 118.348 237.014V237.994ZM125.687 239.618C125.724 239.851 125.743 240.113 125.743 240.402L125.729 240.836C125.729 240.948 125.673 241.004 125.561 241.004H121.179C121.132 241.004 121.109 241.027 121.109 241.074C121.137 241.382 121.179 241.592 121.235 241.704C121.459 242.376 122.005 242.717 122.873 242.726C123.508 242.726 124.012 242.465 124.385 241.942C124.422 241.886 124.469 241.858 124.525 241.858C124.562 241.858 124.595 241.872 124.623 241.9L125.491 242.614C125.575 242.679 125.589 242.754 125.533 242.838C125.244 243.249 124.856 243.566 124.371 243.79C123.895 244.014 123.363 244.126 122.775 244.126C122.047 244.126 121.426 243.963 120.913 243.636C120.409 243.309 120.04 242.852 119.807 242.264C119.592 241.76 119.485 241.06 119.485 240.164C119.485 239.623 119.541 239.184 119.653 238.848C119.84 238.195 120.19 237.681 120.703 237.308C121.226 236.925 121.851 236.734 122.579 236.734C124.418 236.734 125.454 237.695 125.687 239.618ZM122.579 238.134C122.234 238.134 121.944 238.223 121.711 238.4C121.487 238.568 121.328 238.806 121.235 239.114C121.179 239.273 121.142 239.478 121.123 239.73C121.104 239.777 121.123 239.8 121.179 239.8H124.021C124.068 239.8 124.091 239.777 124.091 239.73C124.072 239.497 124.044 239.319 124.007 239.198C123.923 238.862 123.755 238.601 123.503 238.414C123.26 238.227 122.952 238.134 122.579 238.134ZM130.559 236.762C130.858 236.762 131.119 236.823 131.343 236.944C131.418 236.981 131.446 237.051 131.427 237.154L131.189 238.414C131.18 238.526 131.115 238.559 130.993 238.512C130.853 238.465 130.69 238.442 130.503 238.442C130.382 238.442 130.289 238.447 130.223 238.456C129.831 238.475 129.505 238.615 129.243 238.876C128.982 239.128 128.851 239.459 128.851 239.87V243.832C128.851 243.879 128.833 243.921 128.795 243.958C128.767 243.986 128.73 244 128.683 244H127.395C127.349 244 127.307 243.986 127.269 243.958C127.241 243.921 127.227 243.879 127.227 243.832V237.014C127.227 236.967 127.241 236.93 127.269 236.902C127.307 236.865 127.349 236.846 127.395 236.846H128.683C128.73 236.846 128.767 236.865 128.795 236.902C128.833 236.93 128.851 236.967 128.851 237.014V237.644C128.851 237.681 128.856 237.705 128.865 237.714C128.884 237.714 128.903 237.7 128.921 237.672C129.313 237.065 129.859 236.762 130.559 236.762Z" fill="#474747"/>
<rect x="142" y="226" width="24" height="24" rx="12" fill="#336B6C"/>
<path d="M154 232.667L153.06 233.607L156.78 237.333H148.667V238.667H156.78L153.06 242.393L154 243.333L159.333 238L154 232.667Z" fill="white"/>
<defs>
<linearGradient id="paint0_linear_820_4944" x1="106.5" y1="0" x2="106.5" y2="214" gradientUnits="userSpaceOnUse">
<stop stop-color="#336B6C"/>
<stop offset="1" stop-color="#133133"/>
</linearGradient>
<linearGradient id="paint1_linear_820_4944" x1="71.5" y1="-16" x2="71.5" y2="247" gradientUnits="userSpaceOnUse">
<stop stop-color="#336B6C" stop-opacity="0.76"/>
<stop offset="1" stop-color="#133133" stop-opacity="0"/>
</linearGradient>
<linearGradient id="paint2_linear_820_4944" x1="141.5" y1="-16" x2="141.5" y2="247" gradientUnits="userSpaceOnUse">
<stop stop-color="#336B6C" stop-opacity="0.76"/>
<stop offset="1" stop-color="#133133" stop-opacity="0.31"/>
</linearGradient>
<linearGradient id="paint3_linear_820_4944" x1="106.327" y1="109" x2="106.327" y2="165.565" gradientUnits="userSpaceOnUse">
<stop stop-color="#FFD77F"/>
<stop offset="1" stop-color="#FF9F43"/>
</linearGradient>
<clipPath id="clip0_820_4944">
<path d="M0 24C0 10.7452 10.7452 0 24 0H189C202.255 0 213 10.7452 213 24V182C213 199.673 198.673 214 181 214H32C14.3269 214 0 199.673 0 182V24Z" fill="white"/>
</clipPath>
</defs>
</svg>
