<svg width="134" height="124" viewBox="0 0 134 124" fill="none" xmlns="http://www.w3.org/2000/svg">
<g filter="url(#filter0_d_820_5002)">
<rect x="16.6667" y="11" width="101.333" height="92" rx="16" fill="white" shape-rendering="crispEdges"/>
<g clip-path="url(#clip0_820_5002)">
<path d="M54.2744 45.875H52.2744C51.7562 45.875 51.3369 46.2943 51.3369 46.8125V58.0625C51.3369 58.5807 51.7562 59 52.2744 59H54.2744C55.8253 59 57.0869 57.7384 57.0869 56.1875V48.6875C57.0869 47.1366 55.8254 45.875 54.2744 45.875Z" fill="url(#paint0_linear_820_5002)"/>
<path d="M83.0555 47.6937C82.943 47.5062 82.7931 47.3562 82.6244 47.2249C81.934 46.6211 80.771 46.6781 80.0932 47.4125L75.8369 52.325L75.7056 52.4749C75.1807 53.0562 74.4306 53.375 73.6432 53.375H66.3682C65.8431 53.375 65.4307 52.9624 65.4307 52.4375C65.4307 51.9124 65.8431 51.5 66.3682 51.5H72.0869C73.1182 51.5 73.9619 50.6562 73.9619 49.625V49.6062C73.9432 48.575 73.1182 47.75 72.0869 47.75H68.6932C68.1309 47.75 67.5284 47.5436 67.0432 47.1312C64.7557 45.1249 61.4182 44.9937 58.9619 46.7V58.2312C60.8182 58.7375 62.7307 59 64.6619 59H73.0244C75.0869 59 77.0369 58.0249 78.2744 56.3749L82.7745 50.3749C83.4309 49.5131 83.4804 48.3312 83.0555 47.6937Z" fill="url(#paint1_linear_820_5002)"/>
<path d="M76.475 28.8122C75.4352 27.6436 73.9938 27 72.4163 27C70.6555 27 69.1292 27.8326 68.0024 29.4076C67.9179 29.5257 67.8389 29.6438 67.7648 29.7607C67.6908 29.6438 67.6117 29.5257 67.5272 29.4076C66.4004 27.8326 64.8741 27 63.1134 27C61.5359 27 60.0944 27.6436 59.0547 28.8121C58.0679 29.9211 57.5244 31.4037 57.5244 32.9868C57.5244 34.7071 58.192 36.2945 59.6251 37.9826C60.8757 39.4554 62.6694 40.9694 64.7462 42.7224C65.5137 43.3702 66.3074 44.0401 67.1508 44.771C67.327 44.9237 67.5459 45.0001 67.7648 45.0001C67.9837 45.0001 68.2026 44.9237 68.3788 44.771C69.222 44.0402 70.0156 43.3704 70.7831 42.7227C72.117 41.5968 73.2689 40.6246 74.2685 39.6814C76.2094 37.8503 78.0052 35.7719 78.0052 32.9868C78.0052 31.4037 77.4618 29.9212 76.475 28.8122Z" fill="url(#paint2_linear_820_5002)"/>
</g>
<path d="M37.0059 83C36.9526 83 36.9046 82.984 36.8619 82.952C36.8299 82.9093 36.8139 82.8613 36.8139 82.808V71.992C36.8139 71.9387 36.8299 71.896 36.8619 71.864C36.9046 71.8213 36.9526 71.8 37.0059 71.8H40.9099C41.6672 71.8 42.3339 71.9333 42.9099 72.2C43.4859 72.4667 43.9286 72.8507 44.2379 73.352C44.5579 73.8427 44.7179 74.4187 44.7179 75.08V79.72C44.7179 80.3813 44.5579 80.9627 44.2379 81.464C43.9286 81.9547 43.4859 82.3333 42.9099 82.6C42.3339 82.8667 41.6672 83 40.9099 83H37.0059ZM38.6699 81.32C38.6699 81.3733 38.6966 81.4 38.7499 81.4H40.9899C41.5552 81.4 42.0032 81.224 42.3339 80.872C42.6752 80.5093 42.8512 80.0293 42.8619 79.432V75.384C42.8619 74.776 42.6912 74.296 42.3499 73.944C42.0086 73.5813 41.5499 73.4 40.9739 73.4H38.7499C38.6966 73.4 38.6699 73.4267 38.6699 73.48V81.32ZM50.0005 83.128C49.1579 83.128 48.4325 82.9147 47.8245 82.488C47.2272 82.0613 46.8059 81.4693 46.5605 80.712C46.3792 80.136 46.2885 79.528 46.2885 78.888C46.2885 78.2053 46.3739 77.5973 46.5445 77.064C46.7899 76.3173 47.2165 75.736 47.8245 75.32C48.4325 74.904 49.1632 74.696 50.0165 74.696C50.8272 74.696 51.5259 74.904 52.1125 75.32C52.7099 75.736 53.1312 76.312 53.3765 77.048C53.5685 77.56 53.6645 78.168 53.6645 78.872C53.6645 79.544 53.5739 80.152 53.3925 80.696C53.1472 81.4533 52.7259 82.0507 52.1285 82.488C51.5312 82.9147 50.8219 83.128 50.0005 83.128ZM50.0005 81.528C50.3952 81.528 50.7312 81.416 51.0085 81.192C51.2965 80.968 51.5045 80.6533 51.6325 80.248C51.7392 79.896 51.7925 79.448 51.7925 78.904C51.7925 78.328 51.7392 77.88 51.6325 77.56C51.5152 77.1547 51.3125 76.8453 51.0245 76.632C50.7365 76.408 50.3845 76.296 49.9685 76.296C49.5739 76.296 49.2325 76.408 48.9445 76.632C48.6565 76.8453 48.4485 77.1547 48.3205 77.56C48.2139 77.9333 48.1605 78.3813 48.1605 78.904C48.1605 79.4267 48.2139 79.8747 48.3205 80.248C48.4379 80.6533 48.6405 80.968 48.9285 81.192C49.2272 81.416 49.5845 81.528 50.0005 81.528ZM59.3392 74.696C60.2032 74.696 60.8912 74.952 61.4032 75.464C61.9258 75.976 62.1872 76.6747 62.1872 77.56V82.808C62.1872 82.8613 62.1658 82.9093 62.1232 82.952C62.0912 82.984 62.0485 83 61.9952 83H60.5232C60.4698 83 60.4218 82.984 60.3792 82.952C60.3472 82.9093 60.3312 82.8613 60.3312 82.808V77.944C60.3312 77.4533 60.1925 77.0587 59.9152 76.76C59.6378 76.4507 59.2698 76.296 58.8112 76.296C58.3525 76.296 57.9792 76.4453 57.6912 76.744C57.4138 77.0427 57.2752 77.4373 57.2752 77.928V82.808C57.2752 82.8613 57.2538 82.9093 57.2112 82.952C57.1792 82.984 57.1365 83 57.0832 83H55.6112C55.5578 83 55.5098 82.984 55.4672 82.952C55.4352 82.9093 55.4192 82.8613 55.4192 82.808V75.016C55.4192 74.9627 55.4352 74.92 55.4672 74.888C55.5098 74.8453 55.5578 74.824 55.6112 74.824H57.0832C57.1365 74.824 57.1792 74.8453 57.2112 74.888C57.2538 74.92 57.2752 74.9627 57.2752 75.016V75.528C57.2752 75.56 57.2858 75.5813 57.3072 75.592C57.3285 75.6027 57.3445 75.592 57.3552 75.56C57.7925 74.984 58.4538 74.696 59.3392 74.696ZM67.2423 74.696C67.9143 74.696 68.5063 74.8133 69.0183 75.048C69.5303 75.2827 69.925 75.608 70.2023 76.024C70.4796 76.4293 70.6183 76.8933 70.6183 77.416V82.808C70.6183 82.8613 70.597 82.9093 70.5543 82.952C70.5223 82.984 70.4796 83 70.4263 83H68.9543C68.901 83 68.853 82.984 68.8103 82.952C68.7783 82.9093 68.7623 82.8613 68.7623 82.808V82.296C68.7623 82.264 68.7516 82.248 68.7303 82.248C68.709 82.2373 68.6876 82.2427 68.6663 82.264C68.1436 82.84 67.3863 83.128 66.3943 83.128C65.5943 83.128 64.933 82.9253 64.4103 82.52C63.8983 82.1147 63.6423 81.512 63.6423 80.712C63.6423 79.88 63.9303 79.2347 64.5063 78.776C65.093 78.3067 65.9143 78.072 66.9703 78.072H68.6823C68.7356 78.072 68.7623 78.0453 68.7623 77.992V77.608C68.7623 77.192 68.6396 76.872 68.3943 76.648C68.149 76.4133 67.781 76.296 67.2903 76.296C66.885 76.296 66.5543 76.3707 66.2983 76.52C66.053 76.6587 65.8983 76.856 65.8343 77.112C65.8023 77.24 65.7276 77.2933 65.6103 77.272L64.0583 77.08C64.005 77.0693 63.957 77.0533 63.9143 77.032C63.8823 77 63.8716 76.9627 63.8823 76.92C63.9676 76.2693 64.3143 75.736 64.9223 75.32C65.541 74.904 66.3143 74.696 67.2423 74.696ZM66.8583 81.656C67.381 81.656 67.829 81.5173 68.2023 81.24C68.5756 80.9627 68.7623 80.6107 68.7623 80.184V79.432C68.7623 79.3787 68.7356 79.352 68.6823 79.352H67.3383C66.773 79.352 66.325 79.4587 65.9943 79.672C65.6743 79.8853 65.5143 80.1893 65.5143 80.584C65.5143 80.9253 65.637 81.192 65.8823 81.384C66.1383 81.5653 66.4636 81.656 66.8583 81.656ZM76.6927 76.136C76.6927 76.1893 76.6713 76.2373 76.6287 76.28C76.5967 76.312 76.554 76.328 76.5007 76.328H74.8687C74.8153 76.328 74.7887 76.3547 74.7887 76.408V80.264C74.7887 80.6693 74.874 80.9627 75.0447 81.144C75.226 81.3253 75.5087 81.416 75.8927 81.416H76.3727C76.426 81.416 76.4687 81.4373 76.5007 81.48C76.5433 81.512 76.5647 81.5547 76.5647 81.608V82.808C76.5647 82.9253 76.5007 82.9947 76.3727 83.016L75.5407 83.032C74.698 83.032 74.0687 82.888 73.6527 82.6C73.2367 82.312 73.0233 81.768 73.0127 80.968V76.408C73.0127 76.3547 72.986 76.328 72.9327 76.328H72.0207C71.9673 76.328 71.9193 76.312 71.8767 76.28C71.8447 76.2373 71.8287 76.1893 71.8287 76.136V75.016C71.8287 74.9627 71.8447 74.92 71.8767 74.888C71.9193 74.8453 71.9673 74.824 72.0207 74.824H72.9327C72.986 74.824 73.0127 74.7973 73.0127 74.744V72.872C73.0127 72.8187 73.0287 72.776 73.0607 72.744C73.1033 72.7013 73.1513 72.68 73.2047 72.68H74.5967C74.65 72.68 74.6927 72.7013 74.7247 72.744C74.7673 72.776 74.7887 72.8187 74.7887 72.872V74.744C74.7887 74.7973 74.8153 74.824 74.8687 74.824H76.5007C76.554 74.824 76.5967 74.8453 76.6287 74.888C76.6713 74.92 76.6927 74.9627 76.6927 75.016V76.136ZM79.397 73.704C79.0664 73.704 78.7944 73.5973 78.581 73.384C78.3677 73.1707 78.261 72.8987 78.261 72.568C78.261 72.2373 78.3677 71.9653 78.581 71.752C78.7944 71.5387 79.0664 71.432 79.397 71.432C79.7277 71.432 79.9997 71.5387 80.213 71.752C80.4264 71.9653 80.533 72.2373 80.533 72.568C80.533 72.8987 80.4264 73.1707 80.213 73.384C79.9997 73.5973 79.7277 73.704 79.397 73.704ZM78.629 83C78.5757 83 78.5277 82.984 78.485 82.952C78.453 82.9093 78.437 82.8613 78.437 82.808V75C78.437 74.9467 78.453 74.904 78.485 74.872C78.5277 74.8293 78.5757 74.808 78.629 74.808H80.101C80.1544 74.808 80.197 74.8293 80.229 74.872C80.2717 74.904 80.293 74.9467 80.293 75V82.808C80.293 82.8613 80.2717 82.9093 80.229 82.952C80.197 82.984 80.1544 83 80.101 83H78.629ZM85.8912 83.128C85.0485 83.128 84.3232 82.9147 83.7152 82.488C83.1178 82.0613 82.6965 81.4693 82.4512 80.712C82.2698 80.136 82.1792 79.528 82.1792 78.888C82.1792 78.2053 82.2645 77.5973 82.4352 77.064C82.6805 76.3173 83.1072 75.736 83.7152 75.32C84.3232 74.904 85.0538 74.696 85.9072 74.696C86.7178 74.696 87.4165 74.904 88.0032 75.32C88.6005 75.736 89.0218 76.312 89.2672 77.048C89.4592 77.56 89.5552 78.168 89.5552 78.872C89.5552 79.544 89.4645 80.152 89.2832 80.696C89.0378 81.4533 88.6165 82.0507 88.0192 82.488C87.4218 82.9147 86.7125 83.128 85.8912 83.128ZM85.8912 81.528C86.2858 81.528 86.6218 81.416 86.8992 81.192C87.1872 80.968 87.3952 80.6533 87.5232 80.248C87.6298 79.896 87.6832 79.448 87.6832 78.904C87.6832 78.328 87.6298 77.88 87.5232 77.56C87.4058 77.1547 87.2032 76.8453 86.9152 76.632C86.6272 76.408 86.2752 76.296 85.8592 76.296C85.4645 76.296 85.1232 76.408 84.8352 76.632C84.5472 76.8453 84.3392 77.1547 84.2112 77.56C84.1045 77.9333 84.0512 78.3813 84.0512 78.904C84.0512 79.4267 84.1045 79.8747 84.2112 80.248C84.3285 80.6533 84.5312 80.968 84.8192 81.192C85.1178 81.416 85.4752 81.528 85.8912 81.528ZM95.2298 74.696C96.0938 74.696 96.7818 74.952 97.2938 75.464C97.8165 75.976 98.0778 76.6747 98.0778 77.56V82.808C98.0778 82.8613 98.0565 82.9093 98.0138 82.952C97.9818 82.984 97.9391 83 97.8858 83H96.4138C96.3605 83 96.3125 82.984 96.2698 82.952C96.2378 82.9093 96.2218 82.8613 96.2218 82.808V77.944C96.2218 77.4533 96.0831 77.0587 95.8058 76.76C95.5285 76.4507 95.1605 76.296 94.7018 76.296C94.2431 76.296 93.8698 76.4453 93.5818 76.744C93.3045 77.0427 93.1658 77.4373 93.1658 77.928V82.808C93.1658 82.8613 93.1445 82.9093 93.1018 82.952C93.0698 82.984 93.0271 83 92.9738 83H91.5018C91.4485 83 91.4005 82.984 91.3578 82.952C91.3258 82.9093 91.3098 82.8613 91.3098 82.808V75.016C91.3098 74.9627 91.3258 74.92 91.3578 74.888C91.4005 74.8453 91.4485 74.824 91.5018 74.824H92.9738C93.0271 74.824 93.0698 74.8453 93.1018 74.888C93.1445 74.92 93.1658 74.9627 93.1658 75.016V75.528C93.1658 75.56 93.1765 75.5813 93.1978 75.592C93.2191 75.6027 93.2351 75.592 93.2458 75.56C93.6831 74.984 94.3445 74.696 95.2298 74.696Z" fill="#474747"/>
</g>
<defs>
<filter id="filter0_d_820_5002" x="0.666748" y="0" width="133.333" height="124" filterUnits="userSpaceOnUse" color-interpolation-filters="sRGB">
<feFlood flood-opacity="0" result="BackgroundImageFix"/>
<feColorMatrix in="SourceAlpha" type="matrix" values="0 0 0 0 0 0 0 0 0 0 0 0 0 0 0 0 0 0 127 0" result="hardAlpha"/>
<feOffset dy="5"/>
<feGaussianBlur stdDeviation="8"/>
<feComposite in2="hardAlpha" operator="out"/>
<feColorMatrix type="matrix" values="0 0 0 0 0 0 0 0 0 0 0 0 0 0 0 0 0 0 0.1 0"/>
<feBlend mode="normal" in2="BackgroundImageFix" result="effect1_dropShadow_820_5002"/>
<feBlend mode="normal" in="SourceGraphic" in2="effect1_dropShadow_820_5002" result="shape"/>
</filter>
<linearGradient id="paint0_linear_820_5002" x1="54.2119" y1="45.875" x2="54.2119" y2="59" gradientUnits="userSpaceOnUse">
<stop stop-color="#FFEEC9"/>
<stop offset="1" stop-color="#FF9F43"/>
</linearGradient>
<linearGradient id="paint1_linear_820_5002" x1="71.146" y1="45.5154" x2="71.146" y2="59" gradientUnits="userSpaceOnUse">
<stop stop-color="#FFEEC9"/>
<stop offset="1" stop-color="#FF9F43"/>
</linearGradient>
<linearGradient id="paint2_linear_820_5002" x1="67.7648" y1="27" x2="67.7648" y2="45.0001" gradientUnits="userSpaceOnUse">
<stop stop-color="#FFEEC9"/>
<stop offset="1" stop-color="#FF9F43"/>
</linearGradient>
<clipPath id="clip0_820_5002">
<rect width="32" height="32" fill="white" transform="translate(51.3335 27)"/>
</clipPath>
</defs>
</svg>
