<svg width="33" height="32" viewBox="0 0 33 32" fill="none" xmlns="http://www.w3.org/2000/svg">
<g clip-path="url(#clip0_1119_2755)">
<path d="M3.27441 18.875H1.27441C0.756227 18.875 0.336914 19.2943 0.336914 19.8125V31.0625C0.336914 31.5807 0.756227 32 1.27441 32H3.27441C4.82529 32 6.08691 30.7384 6.08691 29.1875V21.6875C6.08691 20.1366 4.82535 18.875 3.27441 18.875Z" fill="white"/>
<path d="M32.0555 20.6937C31.943 20.5062 31.7931 20.3562 31.6244 20.2249C30.934 19.6211 29.771 19.6781 29.0932 20.4125L24.8369 25.325L24.7056 25.4749C24.1807 26.0562 23.4306 26.375 22.6432 26.375H15.3682C14.8431 26.375 14.4307 25.9624 14.4307 25.4375C14.4307 24.9124 14.8431 24.5 15.3682 24.5H21.0869C22.1182 24.5 22.9619 23.6562 22.9619 22.625V22.6062C22.9432 21.575 22.1182 20.75 21.0869 20.75H17.6932C17.1309 20.75 16.5284 20.5436 16.0432 20.1312C13.7557 18.1249 10.4182 17.9937 7.96191 19.7V31.2312C9.81816 31.7375 11.7307 32 13.6619 32H22.0244C24.0869 32 26.0369 31.0249 27.2744 29.3749L31.7745 23.3749C32.4309 22.5131 32.4804 21.3312 32.0555 20.6937Z" fill="white"/>
<path d="M25.475 1.81219C24.4352 0.643563 22.9938 0 21.4163 0C19.6555 0 18.1292 0.832562 17.0024 2.40762C16.9179 2.52569 16.8389 2.64381 16.7648 2.76069C16.6908 2.64375 16.6117 2.52569 16.5272 2.40762C15.4004 0.832562 13.8741 0 12.1134 0C10.5359 0 9.09441 0.643562 8.05466 1.81212C7.06791 2.92112 6.52441 4.40369 6.52441 5.98675C6.52441 7.70706 7.19198 9.2945 8.6251 10.9826C9.87566 12.4554 11.6694 13.9694 13.7462 15.7224C14.5137 16.3702 15.3074 17.0401 16.1508 17.771C16.327 17.9237 16.5459 18.0001 16.7648 18.0001C16.9837 18.0001 17.2026 17.9237 17.3788 17.771C18.222 17.0402 19.0156 16.3704 19.7831 15.7227C21.117 14.5968 22.2689 13.6246 23.2685 12.6814C25.2094 10.8503 27.0052 8.77188 27.0052 5.98681C27.0052 4.40375 26.4618 2.92119 25.475 1.81219Z" fill="white"/>
</g>
<defs>
<clipPath id="clip0_1119_2755">
<rect width="32" height="32" fill="white" transform="translate(0.333496)"/>
</clipPath>
</defs>
</svg>
