<svg width="32" height="32" viewBox="0 0 32 32" fill="none" xmlns="http://www.w3.org/2000/svg">
<path d="M2.9375 18.875H0.9375C0.419312 18.875 0 19.2943 0 19.8125V31.0625C0 31.5807 0.419312 32 0.9375 32H2.9375C4.48837 32 5.75 30.7384 5.75 29.1875V21.6875C5.75 20.1366 4.48844 18.875 2.9375 18.875Z" fill="url(#paint0_linear_976_2574)"/>
<path d="M31.7186 20.6937C31.6061 20.5062 31.4562 20.3562 31.2874 20.2249C30.5971 19.6211 29.4341 19.6781 28.7563 20.4125L24.4999 25.325L24.3687 25.4749C23.8437 26.0562 23.0937 26.375 22.3062 26.375H15.0312C14.5062 26.375 14.0938 25.9624 14.0938 25.4375C14.0938 24.9124 14.5062 24.5 15.0312 24.5H20.75C21.7812 24.5 22.625 23.6562 22.625 22.625V22.6062C22.6062 21.575 21.7812 20.75 20.75 20.75H17.3563C16.794 20.75 16.1915 20.5436 15.7063 20.1312C13.4188 18.1249 10.0812 17.9937 7.625 19.7V31.2312C9.48125 31.7375 11.3938 32 13.3249 32H21.6875C23.7499 32 25.7 31.0249 26.9375 29.3749L31.4376 23.3749C32.094 22.5131 32.1435 21.3312 31.7186 20.6937Z" fill="url(#paint1_linear_976_2574)"/>
<path d="M25.1381 1.81219C24.0983 0.643563 22.6569 0 21.0794 0C19.3186 0 17.7923 0.832562 16.6655 2.40762C16.581 2.52569 16.5019 2.64381 16.4279 2.76069C16.3539 2.64375 16.2748 2.52569 16.1903 2.40762C15.0635 0.832562 13.5372 0 11.7764 0C10.1989 0 8.7575 0.643562 7.71775 1.81212C6.731 2.92112 6.1875 4.40369 6.1875 5.98675C6.1875 7.70706 6.85506 9.2945 8.28819 10.9826C9.53875 12.4554 11.3324 13.9694 13.4093 15.7224C14.1768 16.3702 14.9705 17.0401 15.8139 17.771C15.9901 17.9237 16.2089 18.0001 16.4279 18.0001C16.6467 18.0001 16.8657 17.9237 17.0419 17.771C17.8851 17.0402 18.6787 16.3704 19.4462 15.7227C20.7801 14.5968 21.932 13.6246 22.9316 12.6814C24.8724 10.8503 26.6683 8.77188 26.6683 5.98681C26.6683 4.40375 26.1249 2.92119 25.1381 1.81219Z" fill="url(#paint2_linear_976_2574)"/>
<defs>
<linearGradient id="paint0_linear_976_2574" x1="2.875" y1="18.875" x2="2.875" y2="32" gradientUnits="userSpaceOnUse">
<stop stop-color="#FFEEC9"/>
<stop offset="1" stop-color="#FF9F43"/>
</linearGradient>
<linearGradient id="paint1_linear_976_2574" x1="19.8091" y1="18.5154" x2="19.8091" y2="32" gradientUnits="userSpaceOnUse">
<stop stop-color="#FFEEC9"/>
<stop offset="1" stop-color="#FF9F43"/>
</linearGradient>
<linearGradient id="paint2_linear_976_2574" x1="16.4279" y1="0" x2="16.4279" y2="18.0001" gradientUnits="userSpaceOnUse">
<stop stop-color="#FFEEC9"/>
<stop offset="1" stop-color="#FF9F43"/>
</linearGradient>
</defs>
</svg>
