<svg width="134" height="124" viewBox="0 0 134 124" fill="none" xmlns="http://www.w3.org/2000/svg">
<g filter="url(#filter0_d_820_4996)">
<rect x="16.3333" y="11" width="101.333" height="92" rx="16" fill="white" shape-rendering="crispEdges"/>
<g clip-path="url(#clip0_820_4996)">
<path d="M82.0953 51.4048L80.528 48.0659L81.2581 43.7877C81.263 43.7439 81.263 43.7049 81.2581 43.6611C81.2484 43.6173 80.4307 38.8183 80.2409 37.1927C80.1046 36.0051 79.6325 35.4892 79.2577 35.2604C78.8489 35.0122 78.3427 34.983 77.8365 35.1777C77.3108 35.3772 77.087 35.9126 76.9993 36.4237C75.8994 34.9684 73.6897 32.2476 72.4291 32.0383C71.8109 31.9361 71.334 32.0383 71.003 32.345C70.8521 32.491 70.7548 32.6565 70.6964 32.8171C70.3459 32.6029 69.9225 32.564 69.5574 32.71C68.9782 32.9436 68.6229 33.2989 68.5061 33.7613C68.3796 34.2383 68.5402 34.7007 68.7057 35.0219C68.2384 35.2458 67.9269 35.5719 67.7809 35.9953C67.5522 36.6573 67.8052 37.3728 68.0194 37.8059C67.6446 38.0201 67.2553 38.4679 67.1725 39.3002C67.046 40.5802 69.2313 43.666 69.7619 44.3961C69.6986 44.9704 69.572 46.9903 70.7596 48.3531C71.8791 49.638 73.7091 50.7575 74.264 51.0787L74.6388 53.6875C74.6534 53.7946 74.7166 53.8871 74.8042 53.9455C74.8627 53.9844 74.9308 54.0039 74.9989 54.0039C75.0379 54.0039 75.0719 53.9942 75.106 53.9844L81.8714 51.911C81.9736 51.8769 82.0563 51.8039 82.0953 51.7066C82.1391 51.6092 82.1391 51.5022 82.0953 51.4048ZM71.7136 41.8944C71.6455 41.9479 71.5627 41.9771 71.4848 41.9771C71.3778 41.9771 71.2755 41.9333 71.2025 41.8408L68.2676 38.2342C68.1411 38.0785 68.1654 37.8497 68.3212 37.7232C68.4769 37.5966 68.7057 37.621 68.8371 37.7767L71.7671 41.3833C71.8937 41.5391 71.8693 41.7678 71.7136 41.8944ZM73.1689 39.8112C73.1007 39.8696 73.018 39.8988 72.9304 39.8988C72.8282 39.8988 72.726 39.855 72.653 39.7723L68.9734 35.4454C68.842 35.2896 68.8614 35.0608 69.0172 34.9294C69.1729 34.798 69.4017 34.8175 69.5331 34.9684L73.2127 39.2953C73.3441 39.4462 73.3246 39.6798 73.1689 39.8112ZM74.9357 38.7842L70.6866 33.6542C70.5601 33.4985 70.5795 33.2697 70.7353 33.1383C70.891 33.0118 71.1198 33.0312 71.2512 33.187L75.5003 38.317C75.6268 38.4727 75.6073 38.7015 75.4516 38.8329C75.3834 38.8913 75.3007 38.9156 75.218 38.9156C75.1157 38.9156 75.0087 38.8718 74.9357 38.7842ZM77.7002 41.6121C77.7002 41.7337 77.6418 41.8457 77.5396 41.9138C77.525 41.9236 75.9578 42.9992 75.9578 44.4545C75.9578 44.654 75.7923 44.8195 75.5927 44.8195C75.3932 44.8195 75.2277 44.654 75.2277 44.4545C75.2277 42.9067 76.5078 41.7824 76.9701 41.4271V37.4944C76.9701 37.2949 77.1356 37.1294 77.3352 37.1294C77.5347 37.1294 77.7002 37.2949 77.7002 37.4944V41.6121Z" fill="url(#paint0_linear_820_4996)"/>
<path d="M51.0329 51.7066C51.0718 51.8039 51.1545 51.8769 51.2567 51.911L58.0221 53.9844C58.0562 53.9942 58.0903 54.0039 58.1292 54.0039C58.1973 54.0039 58.2655 53.9844 58.3239 53.9455C58.4115 53.8871 58.4748 53.7946 58.4894 53.6875L58.8641 51.0787C59.419 50.7575 61.2491 49.638 62.3685 48.3531C63.5561 46.9903 63.4296 44.9704 63.3663 44.3961C63.8968 43.666 66.0822 40.5802 65.9556 39.3002C65.8729 38.4679 65.4835 38.0201 65.1087 37.8059C65.3229 37.3728 65.576 36.6573 65.3472 35.9953C65.2012 35.5719 64.8897 35.2458 64.4225 35.0219C64.5879 34.7007 64.7486 34.2383 64.622 33.7613C64.5052 33.2989 64.1499 32.9436 63.5707 32.71C63.2057 32.564 62.7822 32.6029 62.4318 32.8171C62.3734 32.6565 62.276 32.491 62.1251 32.345C61.7942 32.0383 61.3172 31.9361 60.6991 32.0383C59.4385 32.2476 57.2288 34.9684 56.1288 36.4237C56.0412 35.9126 55.8173 35.3772 55.2916 35.1777C54.7854 34.983 54.2793 35.0122 53.8704 35.2604C53.4956 35.4892 53.0235 36.0051 52.8872 37.1927C52.6974 38.8183 51.8797 43.6173 51.87 43.6611C51.8651 43.7049 51.8651 43.7439 51.87 43.7877L52.6001 48.0659L51.0329 51.4048C50.989 51.5022 50.989 51.6092 51.0329 51.7066ZM61.361 41.3784L64.291 37.7719C64.4176 37.6161 64.6463 37.5918 64.807 37.7183C64.9627 37.8449 64.987 38.0736 64.8605 38.2294L61.9305 41.836C61.8575 41.9236 61.7552 41.9722 61.6482 41.9722C61.5654 41.9722 61.4875 41.9479 61.4194 41.8895C61.2588 41.7678 61.2345 41.5391 61.361 41.3784ZM59.9154 39.2953L63.595 34.9684C63.7264 34.8175 63.9552 34.798 64.111 34.9294C64.2667 35.0608 64.2813 35.2896 64.1548 35.4454L60.4752 39.7723C60.4022 39.855 60.3 39.8988 60.1977 39.8988C60.115 39.8988 60.0323 39.8696 59.9593 39.8112C59.8035 39.6798 59.784 39.4462 59.9154 39.2953ZM57.9102 38.9156C57.8274 38.9156 57.7447 38.8864 57.6765 38.8329C57.5208 38.7064 57.5013 38.4727 57.6279 38.317L61.8769 33.187C62.0035 33.0312 62.2371 33.0118 62.3928 33.1383C62.5486 33.2649 62.5681 33.4985 62.4415 33.6542L58.1925 38.7842C58.1195 38.8718 58.0124 38.9156 57.9102 38.9156ZM55.4279 37.4896C55.4279 37.29 55.5934 37.1245 55.793 37.1245C55.9925 37.1245 56.158 37.29 56.158 37.4896V41.4222C56.6204 41.7775 57.9004 42.9019 57.9004 44.4496C57.9004 44.6492 57.735 44.8147 57.5354 44.8147C57.3358 44.8147 57.1704 44.6492 57.1704 44.4496C57.1704 42.9943 55.6031 41.9187 55.5885 41.909C55.4863 41.8408 55.4279 41.7289 55.4279 41.6072V37.4896Z" fill="url(#paint1_linear_820_4996)"/>
</g>
<path d="M54.9771 83C54.9238 83 54.8758 82.984 54.8331 82.952C54.8011 82.9093 54.7851 82.8613 54.7851 82.808V71.992C54.7851 71.9387 54.8011 71.896 54.8331 71.864C54.8758 71.8213 54.9238 71.8 54.9771 71.8H58.8811C59.6384 71.8 60.3051 71.9333 60.8811 72.2C61.4571 72.4667 61.8998 72.8507 62.2091 73.352C62.5291 73.8427 62.6891 74.4187 62.6891 75.08V79.72C62.6891 80.3813 62.5291 80.9627 62.2091 81.464C61.8998 81.9547 61.4571 82.3333 60.8811 82.6C60.3051 82.8667 59.6384 83 58.8811 83H54.9771ZM56.6411 81.32C56.6411 81.3733 56.6678 81.4 56.7211 81.4H58.9611C59.5264 81.4 59.9744 81.224 60.3051 80.872C60.6464 80.5093 60.8224 80.0293 60.8331 79.432V75.384C60.8331 74.776 60.6624 74.296 60.3211 73.944C59.9798 73.5813 59.5211 73.4 58.9451 73.4H56.7211C56.6678 73.4 56.6411 73.4267 56.6411 73.48V81.32ZM69.1911 75.016C69.1911 74.9627 69.2071 74.92 69.2391 74.888C69.2818 74.8453 69.3298 74.824 69.3831 74.824H70.8391C70.8924 74.824 70.9351 74.8453 70.9671 74.888C71.0098 74.92 71.0311 74.9627 71.0311 75.016V82.808C71.0311 82.8613 71.0098 82.9093 70.9671 82.952C70.9351 82.984 70.8924 83 70.8391 83H69.3831C69.3298 83 69.2818 82.984 69.2391 82.952C69.2071 82.9093 69.1911 82.8613 69.1911 82.808V82.296C69.1911 82.264 69.1804 82.2427 69.1591 82.232C69.1378 82.2213 69.1164 82.232 69.0951 82.264C68.6578 82.8293 68.0018 83.112 67.1271 83.112C66.3164 83.112 65.6338 82.8773 65.0791 82.408C64.5351 81.9387 64.2631 81.272 64.2631 80.408V75.016C64.2631 74.9627 64.2791 74.92 64.3111 74.888C64.3538 74.8453 64.4018 74.824 64.4551 74.824H65.9271C65.9804 74.824 66.0231 74.8453 66.0551 74.888C66.0978 74.92 66.1191 74.9627 66.1191 75.016V79.88C66.1191 80.3813 66.2471 80.7813 66.5031 81.08C66.7698 81.3787 67.1378 81.528 67.6071 81.528C68.0871 81.528 68.4711 81.3787 68.7591 81.08C69.0471 80.7813 69.1911 80.3813 69.1911 79.88V75.016ZM76.1354 74.696C76.8074 74.696 77.3994 74.8133 77.9114 75.048C78.4234 75.2827 78.818 75.608 79.0954 76.024C79.3727 76.4293 79.5114 76.8933 79.5114 77.416V82.808C79.5114 82.8613 79.49 82.9093 79.4474 82.952C79.4154 82.984 79.3727 83 79.3194 83H77.8474C77.794 83 77.746 82.984 77.7034 82.952C77.6714 82.9093 77.6554 82.8613 77.6554 82.808V82.296C77.6554 82.264 77.6447 82.248 77.6234 82.248C77.602 82.2373 77.5807 82.2427 77.5594 82.264C77.0367 82.84 76.2794 83.128 75.2874 83.128C74.4874 83.128 73.826 82.9253 73.3034 82.52C72.7914 82.1147 72.5354 81.512 72.5354 80.712C72.5354 79.88 72.8234 79.2347 73.3994 78.776C73.986 78.3067 74.8074 78.072 75.8634 78.072H77.5754C77.6287 78.072 77.6554 78.0453 77.6554 77.992V77.608C77.6554 77.192 77.5327 76.872 77.2874 76.648C77.042 76.4133 76.674 76.296 76.1834 76.296C75.778 76.296 75.4474 76.3707 75.1914 76.52C74.946 76.6587 74.7914 76.856 74.7274 77.112C74.6954 77.24 74.6207 77.2933 74.5034 77.272L72.9514 77.08C72.898 77.0693 72.85 77.0533 72.8074 77.032C72.7754 77 72.7647 76.9627 72.7754 76.92C72.8607 76.2693 73.2074 75.736 73.8154 75.32C74.434 74.904 75.2074 74.696 76.1354 74.696ZM75.7514 81.656C76.274 81.656 76.722 81.5173 77.0954 81.24C77.4687 80.9627 77.6554 80.6107 77.6554 80.184V79.432C77.6554 79.3787 77.6287 79.352 77.5754 79.352H76.2314C75.666 79.352 75.218 79.4587 74.8874 79.672C74.5674 79.8853 74.4074 80.1893 74.4074 80.584C74.4074 80.9253 74.53 81.192 74.7754 81.384C75.0314 81.5653 75.3567 81.656 75.7514 81.656Z" fill="#474747"/>
</g>
<defs>
<filter id="filter0_d_820_4996" x="0.333252" y="0" width="133.333" height="124" filterUnits="userSpaceOnUse" color-interpolation-filters="sRGB">
<feFlood flood-opacity="0" result="BackgroundImageFix"/>
<feColorMatrix in="SourceAlpha" type="matrix" values="0 0 0 0 0 0 0 0 0 0 0 0 0 0 0 0 0 0 127 0" result="hardAlpha"/>
<feOffset dy="5"/>
<feGaussianBlur stdDeviation="8"/>
<feComposite in2="hardAlpha" operator="out"/>
<feColorMatrix type="matrix" values="0 0 0 0 0 0 0 0 0 0 0 0 0 0 0 0 0 0 0.1 0"/>
<feBlend mode="normal" in2="BackgroundImageFix" result="effect1_dropShadow_820_4996"/>
<feBlend mode="normal" in="SourceGraphic" in2="effect1_dropShadow_820_4996" result="shape"/>
</filter>
<linearGradient id="paint0_linear_820_4996" x1="74.6477" y1="32" x2="74.6477" y2="54.0039" gradientUnits="userSpaceOnUse">
<stop stop-color="white"/>
<stop offset="1" stop-color="#9769FF"/>
</linearGradient>
<linearGradient id="paint1_linear_820_4996" x1="58.4804" y1="32" x2="58.4804" y2="54.0039" gradientUnits="userSpaceOnUse">
<stop stop-color="white"/>
<stop offset="1" stop-color="#9769FF"/>
</linearGradient>
<clipPath id="clip0_820_4996">
<rect width="32" height="32" fill="white" transform="translate(51 27)"/>
</clipPath>
</defs>
</svg>
