<svg width="32" height="23" viewBox="0 0 32 23" fill="none" xmlns="http://www.w3.org/2000/svg">
<path d="M31.0953 19.4048L29.528 16.0659L30.2581 11.7877C30.263 11.7439 30.263 11.7049 30.2581 11.6611C30.2484 11.6173 29.4307 6.81831 29.2409 5.19267C29.1046 4.00508 28.6325 3.48916 28.2577 3.2604C27.8489 3.01217 27.3427 2.98297 26.8365 3.17766C26.3108 3.37721 26.087 3.9126 25.9993 4.42365C24.8994 2.96837 22.6897 0.247618 21.4291 0.038329C20.8109 -0.0638817 20.334 0.038329 20.003 0.344961C19.8521 0.490976 19.7548 0.65646 19.6964 0.817077C19.3459 0.602921 18.9225 0.563984 18.5574 0.709999C17.9782 0.943624 17.6229 1.29893 17.5061 1.76131C17.3796 2.23829 17.5402 2.70067 17.7057 3.02191C17.2384 3.2458 16.9269 3.5719 16.7809 3.99534C16.5522 4.65728 16.8052 5.37275 17.0194 5.80593C16.6446 6.02009 16.2553 6.46787 16.1725 7.30016C16.046 8.58022 18.2313 11.666 18.7619 12.3961C18.6986 12.9704 18.572 14.9903 19.7596 16.3531C20.8791 17.638 22.7091 18.7575 23.264 19.0787L23.6388 21.6875C23.6534 21.7946 23.7166 21.8871 23.8042 21.9455C23.8627 21.9844 23.9308 22.0039 23.9989 22.0039C24.0379 22.0039 24.0719 21.9942 24.106 21.9844L30.8714 19.911C30.9736 19.8769 31.0563 19.8039 31.0953 19.7066C31.1391 19.6092 31.1391 19.5022 31.0953 19.4048ZM20.7136 9.89436C20.6455 9.9479 20.5627 9.9771 20.4848 9.9771C20.3778 9.9771 20.2755 9.9333 20.2025 9.84082L17.2676 6.23424C17.1411 6.0785 17.1654 5.84974 17.3212 5.72319C17.4769 5.59664 17.7057 5.62098 17.8371 5.77673L20.7671 9.38331C20.8937 9.53906 20.8693 9.76781 20.7136 9.89436ZM22.1689 7.81121C22.1007 7.86962 22.018 7.89882 21.9304 7.89882C21.8282 7.89882 21.726 7.85501 21.653 7.77227L17.9734 3.44535C17.842 3.2896 17.8614 3.06085 18.0172 2.92943C18.1729 2.79802 18.4017 2.81749 18.5331 2.96837L22.2127 7.29529C22.3441 7.44617 22.3246 7.6798 22.1689 7.81121ZM23.9357 6.78424L19.6866 1.65423C19.5601 1.49848 19.5795 1.26972 19.7353 1.13831C19.891 1.01176 20.1198 1.03123 20.2512 1.18698L24.5003 6.31699C24.6268 6.47274 24.6073 6.70149 24.4516 6.83291C24.3834 6.89131 24.3007 6.91565 24.218 6.91565C24.1157 6.91565 24.0087 6.87184 23.9357 6.78424ZM26.7002 9.61206C26.7002 9.73374 26.6418 9.84569 26.5396 9.91383C26.525 9.92356 24.9578 10.9992 24.9578 12.4545C24.9578 12.654 24.7923 12.8195 24.5927 12.8195C24.3932 12.8195 24.2277 12.654 24.2277 12.4545C24.2277 10.9067 25.5078 9.78242 25.9701 9.42711V5.49443C25.9701 5.29488 26.1356 5.1294 26.3352 5.1294C26.5347 5.1294 26.7002 5.29488 26.7002 5.49443V9.61206Z" fill="url(#paint0_linear_689_4156)"/>
<path d="M0.0328534 19.7066C0.0717909 19.8039 0.154533 19.8769 0.256744 19.911L7.02212 21.9844C7.05619 21.9942 7.09026 22.0039 7.1292 22.0039C7.19734 22.0039 7.26548 21.9844 7.32388 21.9455C7.41149 21.8871 7.47477 21.7946 7.48937 21.6875L7.86414 19.0787C8.419 18.7575 10.2491 17.638 11.3685 16.3531C12.5561 14.9903 12.4296 12.9704 12.3663 12.3961C12.8968 11.666 15.0822 8.58022 14.9556 7.30016C14.8729 6.46787 14.4835 6.02009 14.1087 5.80593C14.3229 5.37275 14.576 4.65728 14.3472 3.99534C14.2012 3.5719 13.8897 3.2458 13.4225 3.02191C13.5879 2.70067 13.7486 2.23829 13.622 1.76131C13.5052 1.29893 13.1499 0.943624 12.5707 0.709999C12.2057 0.563984 11.7822 0.602921 11.4318 0.817077C11.3734 0.65646 11.276 0.490976 11.1251 0.344961C10.7942 0.038329 10.3172 -0.0638817 9.69907 0.038329C8.43847 0.247618 6.22877 2.96837 5.12879 4.42365C5.04118 3.9126 4.81729 3.37721 4.29163 3.17766C3.78545 2.98297 3.27926 3.01217 2.87042 3.2604C2.49564 3.48916 2.02353 4.00508 1.88725 5.19267C1.69743 6.81831 0.879742 11.6173 0.870008 11.6611C0.86514 11.7049 0.86514 11.7439 0.870008 11.7877L1.60008 16.0659L0.0328534 19.4048C-0.0109511 19.5022 -0.0109511 19.6092 0.0328534 19.7066ZM10.361 9.37844L13.291 5.77186C13.4176 5.61611 13.6463 5.59178 13.807 5.71832C13.9627 5.84487 13.987 6.07363 13.8605 6.22938L10.9305 9.83595C10.8575 9.92356 10.7552 9.97224 10.6482 9.97224C10.5654 9.97224 10.4875 9.9479 10.4194 9.88949C10.2588 9.76781 10.2345 9.53906 10.361 9.37844ZM8.91545 7.29529L12.595 2.96837C12.7264 2.81749 12.9552 2.79802 13.111 2.92943C13.2667 3.06085 13.2813 3.2896 13.1548 3.44535L9.47517 7.77227C9.40217 7.85501 9.29996 7.89882 9.19775 7.89882C9.115 7.89882 9.03226 7.86962 8.95925 7.81121C8.8035 7.6798 8.78404 7.44617 8.91545 7.29529ZM6.91017 6.91565C6.82743 6.91565 6.74469 6.88645 6.67655 6.83291C6.5208 6.70636 6.50133 6.47274 6.62788 6.31699L10.8769 1.18698C11.0035 1.03123 11.2371 1.01176 11.3928 1.13831C11.5486 1.26486 11.5681 1.49848 11.4415 1.65423L7.19247 6.78424C7.11946 6.87184 7.01238 6.91565 6.91017 6.91565ZM4.42791 5.48957C4.42791 5.29001 4.5934 5.12453 4.79295 5.12453C4.99251 5.12453 5.15799 5.29001 5.15799 5.48957V9.42225C5.62037 9.77755 6.90044 10.9019 6.90044 12.4496C6.90044 12.6492 6.73496 12.8147 6.5354 12.8147C6.33585 12.8147 6.17036 12.6492 6.17036 12.4496C6.17036 10.9943 4.60313 9.9187 4.58853 9.90896C4.48632 9.84082 4.42791 9.72888 4.42791 9.6072V5.48957Z" fill="url(#paint1_linear_689_4156)"/>
<defs>
<linearGradient id="paint0_linear_689_4156" x1="23.6477" y1="0" x2="23.6477" y2="22.0039" gradientUnits="userSpaceOnUse">
<stop stop-color="white"/>
<stop offset="1" stop-color="#9769FF"/>
</linearGradient>
<linearGradient id="paint1_linear_689_4156" x1="7.48045" y1="0" x2="7.48045" y2="22.0039" gradientUnits="userSpaceOnUse">
<stop stop-color="white"/>
<stop offset="1" stop-color="#9769FF"/>
</linearGradient>
</defs>
</svg>
