<svg width="27" height="24" viewBox="0 0 27 24" fill="none" xmlns="http://www.w3.org/2000/svg">
<path d="M13.8667 2.68671L20.9966 0.0745759C21.8135 -0.224731 22.6667 0.414176 22.6667 1.32522V13.9967C22.6667 14.5603 22.328 15.0622 21.8226 15.2473C19.1833 16.2143 13.8667 18.1333 13.8667 18.1333V2.68671Z" fill="url(#paint0_linear_689_4193)"/>
<path d="M11.385 22.5059C10.5656 22.2227 9.34434 21.8007 7.97303 21.3276C7.21367 21.0656 6.40847 20.7879 5.6001 20.5095V22.6532C5.6001 23.572 6.50743 24.2155 7.37442 23.9115L11.385 22.5059Z" fill="url(#paint1_linear_689_4193)"/>
<path d="M15.2832 22.5064C16.1017 22.2242 17.3203 21.8042 18.689 21.333C19.4496 21.0711 20.2565 20.7935 21.0667 20.515V22.6532C21.0667 23.572 20.1593 24.2155 19.2924 23.9115L15.2832 22.5064Z" fill="url(#paint2_linear_689_4193)"/>
<path d="M5.67013 0.0745759C4.8532 -0.224731 4 0.414176 4 1.32522V13.9967C4 14.5603 4.33875 15.0622 4.84413 15.2473C7.49296 16.2178 10.096 17.3198 12.8 18.1333V2.68671L5.67013 0.0745759Z" fill="url(#paint3_linear_689_4193)"/>
<path d="M23.7334 1.56207V13.9967C23.7334 14.9797 23.1411 15.9003 22.1895 16.2489C19.4249 17.2618 13.8667 19.2472 13.8667 19.2472V21.8667C13.8667 21.8667 21.8277 19.1197 25.7846 17.7697C26.3107 17.5903 26.6667 17.0784 26.6667 16.5011V2.40244C26.6667 1.4945 25.8163 0.85151 24.9888 1.1338L23.7334 1.56207Z" fill="url(#paint4_linear_689_4193)"/>
<path d="M12.8 19.2472C12.8 19.2 8.84245 17.9103 6.8908 17.1614L6.89035 17.1612L6.88949 17.1609L6.88891 17.1606C6.07395 16.8479 5.26875 16.5389 4.4772 16.2489C3.5256 15.9003 2.93333 14.9797 2.93333 13.9967V1.56186L1.678 1.13378C0.85048 0.851593 0 1.49431 0 2.40186V16.4945C0 17.0715 0.355867 17.5832 0.882 17.7626C4.82821 19.1082 12.8 21.8667 12.8 21.8667V19.2472Z" fill="url(#paint5_linear_689_4193)"/>
<defs>
<linearGradient id="paint0_linear_689_4193" x1="18.2667" y1="0" x2="18.2667" y2="18.1333" gradientUnits="userSpaceOnUse">
<stop stop-color="#DFFFF7"/>
<stop offset="1" stop-color="#1A9B65"/>
</linearGradient>
<linearGradient id="paint1_linear_689_4193" x1="8.49255" y1="20.5095" x2="8.49255" y2="23.9877" gradientUnits="userSpaceOnUse">
<stop stop-color="#DFFFF7"/>
<stop offset="1" stop-color="#1A9B65"/>
</linearGradient>
<linearGradient id="paint2_linear_689_4193" x1="18.1749" y1="20.515" x2="18.1749" y2="23.9877" gradientUnits="userSpaceOnUse">
<stop stop-color="#DFFFF7"/>
<stop offset="1" stop-color="#1A9B65"/>
</linearGradient>
<linearGradient id="paint3_linear_689_4193" x1="8.4" y1="0" x2="8.4" y2="18.1333" gradientUnits="userSpaceOnUse">
<stop stop-color="#DFFFF7"/>
<stop offset="1" stop-color="#1A9B65"/>
</linearGradient>
<linearGradient id="paint4_linear_689_4193" x1="20.2667" y1="1.06665" x2="20.2667" y2="21.8667" gradientUnits="userSpaceOnUse">
<stop stop-color="#DFFFF7"/>
<stop offset="1" stop-color="#1A9B65"/>
</linearGradient>
<linearGradient id="paint5_linear_689_4193" x1="6.4" y1="1.06665" x2="6.4" y2="21.8667" gradientUnits="userSpaceOnUse">
<stop stop-color="#DFFFF7"/>
<stop offset="1" stop-color="#1A9B65"/>
</linearGradient>
</defs>
</svg>
