<svg width="134" height="124" viewBox="0 0 134 124" fill="none" xmlns="http://www.w3.org/2000/svg">
<g filter="url(#filter0_d_851_2585)">
<rect x="16" y="11" width="101.333" height="92" rx="16" fill="white" shape-rendering="crispEdges"/>
<path d="M67.2 33.6867L74.3298 31.0746C75.1468 30.7753 76 31.4142 76 32.3252V44.9967C76 45.5603 75.6612 46.0622 75.1558 46.2473C72.5166 47.2143 67.2 49.1333 67.2 49.1333V33.6867Z" fill="url(#paint0_linear_851_2585)"/>
<path d="M64.7181 53.5059C63.8987 53.2227 62.6775 52.8007 61.3062 52.3276C60.5468 52.0656 59.7416 51.7879 58.9332 51.5095V53.6532C58.9332 54.572 59.8406 55.2155 60.7075 54.9115L64.7181 53.5059Z" fill="url(#paint1_linear_851_2585)"/>
<path d="M68.6165 53.5064C69.435 53.2242 70.6536 52.8042 72.0222 52.333C72.7829 52.0711 73.5897 51.7935 74.3999 51.515V53.6532C74.3999 54.572 73.4926 55.2155 72.6256 54.9115L68.6165 53.5064Z" fill="url(#paint2_linear_851_2585)"/>
<path d="M59.0034 31.0746C58.1865 30.7753 57.3333 31.4142 57.3333 32.3252V44.9967C57.3333 45.5603 57.672 46.0622 58.1774 46.2473C60.8262 47.2178 63.4293 48.3198 66.1333 49.1333V33.6867L59.0034 31.0746Z" fill="url(#paint3_linear_851_2585)"/>
<path d="M77.0666 32.5621V44.9967C77.0666 45.9797 76.4744 46.9003 75.5228 47.2489C72.7582 48.2618 67.2 50.2472 67.2 50.2472V52.8667C67.2 52.8667 75.1609 50.1197 79.1178 48.7697C79.644 48.5903 80 48.0784 80 47.5011V33.4024C80 32.4945 79.1496 31.8515 78.3221 32.1338L77.0666 32.5621Z" fill="url(#paint4_linear_851_2585)"/>
<path d="M66.1333 50.2472C66.1333 50.2 62.1757 48.9103 60.2241 48.1614L60.2236 48.1612L60.2227 48.1609L60.2222 48.1606C59.4072 47.8479 58.602 47.5389 57.8105 47.2489C56.8589 46.9003 56.2666 45.9797 56.2666 44.9967V32.5619L55.0113 32.1338C54.1837 31.8516 53.3333 32.4943 53.3333 33.4019V47.4945C53.3333 48.0715 53.6891 48.5832 54.2153 48.7626C58.1615 50.1082 66.1333 52.8667 66.1333 52.8667V50.2472Z" fill="url(#paint5_linear_851_2585)"/>
<path d="M50.8057 71.992C50.8057 71.9387 50.8217 71.896 50.8537 71.864C50.8963 71.8213 50.9443 71.8 50.9977 71.8H52.4697C52.523 71.8 52.5657 71.8213 52.5977 71.864C52.6403 71.896 52.6617 71.9387 52.6617 71.992V82.808C52.6617 82.8613 52.6403 82.9093 52.5977 82.952C52.5657 82.984 52.523 83 52.4697 83H50.9977C50.9443 83 50.8963 82.984 50.8537 82.952C50.8217 82.9093 50.8057 82.8613 50.8057 82.808V78.232C50.8057 78.1787 50.779 78.152 50.7257 78.152H46.6457C46.5923 78.152 46.5657 78.1787 46.5657 78.232V82.808C46.5657 82.8613 46.5443 82.9093 46.5017 82.952C46.4697 82.984 46.427 83 46.3737 83H44.9017C44.8483 83 44.8003 82.984 44.7577 82.952C44.7257 82.9093 44.7097 82.8613 44.7097 82.808V71.992C44.7097 71.9387 44.7257 71.896 44.7577 71.864C44.8003 71.8213 44.8483 71.8 44.9017 71.8H46.3737C46.427 71.8 46.4697 71.8213 46.5017 71.864C46.5443 71.896 46.5657 71.9387 46.5657 71.992V76.472C46.5657 76.5253 46.5923 76.552 46.6457 76.552H50.7257C50.779 76.552 50.8057 76.5253 50.8057 76.472V71.992ZM57.8412 74.696C58.5132 74.696 59.1052 74.8133 59.6172 75.048C60.1292 75.2827 60.5238 75.608 60.8012 76.024C61.0785 76.4293 61.2172 76.8933 61.2172 77.416V82.808C61.2172 82.8613 61.1958 82.9093 61.1532 82.952C61.1212 82.984 61.0785 83 61.0252 83H59.5532C59.4998 83 59.4518 82.984 59.4092 82.952C59.3772 82.9093 59.3612 82.8613 59.3612 82.808V82.296C59.3612 82.264 59.3505 82.248 59.3292 82.248C59.3078 82.2373 59.2865 82.2427 59.2652 82.264C58.7425 82.84 57.9852 83.128 56.9932 83.128C56.1932 83.128 55.5318 82.9253 55.0092 82.52C54.4972 82.1147 54.2412 81.512 54.2412 80.712C54.2412 79.88 54.5292 79.2347 55.1052 78.776C55.6918 78.3067 56.5132 78.072 57.5692 78.072H59.2812C59.3345 78.072 59.3612 78.0453 59.3612 77.992V77.608C59.3612 77.192 59.2385 76.872 58.9932 76.648C58.7478 76.4133 58.3798 76.296 57.8892 76.296C57.4838 76.296 57.1532 76.3707 56.8972 76.52C56.6518 76.6587 56.4972 76.856 56.4332 77.112C56.4012 77.24 56.3265 77.2933 56.2092 77.272L54.6572 77.08C54.6038 77.0693 54.5558 77.0533 54.5132 77.032C54.4812 77 54.4705 76.9627 54.4812 76.92C54.5665 76.2693 54.9132 75.736 55.5212 75.32C56.1398 74.904 56.9132 74.696 57.8412 74.696ZM57.4572 81.656C57.9798 81.656 58.4278 81.5173 58.8012 81.24C59.1745 80.9627 59.3612 80.6107 59.3612 80.184V79.432C59.3612 79.3787 59.3345 79.352 59.2812 79.352H57.9372C57.3718 79.352 56.9238 79.4587 56.5932 79.672C56.2732 79.8853 56.1132 80.1893 56.1132 80.584C56.1132 80.9253 56.2358 81.192 56.4812 81.384C56.7372 81.5653 57.0625 81.656 57.4572 81.656ZM68.1525 71.992C68.1525 71.9387 68.1685 71.896 68.2005 71.864C68.2432 71.8213 68.2912 71.8 68.3445 71.8H69.8165C69.8699 71.8 69.9125 71.8213 69.9445 71.864C69.9872 71.896 70.0085 71.9387 70.0085 71.992V82.808C70.0085 82.8613 69.9872 82.9093 69.9445 82.952C69.9125 82.984 69.8699 83 69.8165 83H68.3445C68.2912 83 68.2432 82.984 68.2005 82.952C68.1685 82.9093 68.1525 82.8613 68.1525 82.808V82.328C68.1525 82.296 68.1419 82.2747 68.1205 82.264C68.0992 82.2533 68.0779 82.264 68.0565 82.296C67.5872 82.8507 66.9739 83.128 66.2165 83.128C65.4592 83.128 64.8192 82.9307 64.2965 82.536C63.7739 82.1413 63.3952 81.592 63.1605 80.888C62.9685 80.2907 62.8725 79.624 62.8725 78.888C62.8725 78.1307 62.9632 77.48 63.1445 76.936C63.3792 76.232 63.7579 75.6827 64.2805 75.288C64.8032 74.8933 65.4592 74.696 66.2485 74.696C66.9845 74.696 67.5872 74.9627 68.0565 75.496C68.0779 75.5173 68.0992 75.528 68.1205 75.528C68.1419 75.5173 68.1525 75.496 68.1525 75.464V71.992ZM67.7685 80.76C68.0139 80.3227 68.1365 79.704 68.1365 78.904C68.1365 78.072 68.0032 77.4373 67.7365 77C67.4485 76.5307 67.0432 76.296 66.5205 76.296C65.9765 76.296 65.5499 76.52 65.2405 76.968C64.9205 77.4373 64.7605 78.088 64.7605 78.92C64.7605 79.6667 64.8885 80.28 65.1445 80.76C65.4432 81.272 65.8965 81.528 66.5045 81.528C67.0485 81.528 67.4699 81.272 67.7685 80.76ZM73.074 73.704C72.7434 73.704 72.4714 73.5973 72.258 73.384C72.0447 73.1707 71.938 72.8987 71.938 72.568C71.938 72.2373 72.0447 71.9653 72.258 71.752C72.4714 71.5387 72.7434 71.432 73.074 71.432C73.4047 71.432 73.6767 71.5387 73.89 71.752C74.1034 71.9653 74.21 72.2373 74.21 72.568C74.21 72.8987 74.1034 73.1707 73.89 73.384C73.6767 73.5973 73.4047 73.704 73.074 73.704ZM72.306 83C72.2527 83 72.2047 82.984 72.162 82.952C72.13 82.9093 72.114 82.8613 72.114 82.808V75C72.114 74.9467 72.13 74.904 72.162 74.872C72.2047 74.8293 72.2527 74.808 72.306 74.808H73.778C73.8314 74.808 73.874 74.8293 73.906 74.872C73.9487 74.904 73.97 74.9467 73.97 75V82.808C73.97 82.8613 73.9487 82.9093 73.906 82.952C73.874 82.984 73.8314 83 73.778 83H72.306ZM80.4322 76.136C80.4322 76.1893 80.4108 76.2373 80.3682 76.28C80.3362 76.312 80.2935 76.328 80.2402 76.328H78.6082C78.5548 76.328 78.5282 76.3547 78.5282 76.408V80.264C78.5282 80.6693 78.6135 80.9627 78.7842 81.144C78.9655 81.3253 79.2482 81.416 79.6322 81.416H80.1122C80.1655 81.416 80.2082 81.4373 80.2402 81.48C80.2828 81.512 80.3042 81.5547 80.3042 81.608V82.808C80.3042 82.9253 80.2402 82.9947 80.1122 83.016L79.2802 83.032C78.4375 83.032 77.8082 82.888 77.3922 82.6C76.9762 82.312 76.7628 81.768 76.7522 80.968V76.408C76.7522 76.3547 76.7255 76.328 76.6722 76.328H75.7602C75.7068 76.328 75.6588 76.312 75.6162 76.28C75.5842 76.2373 75.5682 76.1893 75.5682 76.136V75.016C75.5682 74.9627 75.5842 74.92 75.6162 74.888C75.6588 74.8453 75.7068 74.824 75.7602 74.824H76.6722C76.7255 74.824 76.7522 74.7973 76.7522 74.744V72.872C76.7522 72.8187 76.7682 72.776 76.8002 72.744C76.8428 72.7013 76.8908 72.68 76.9442 72.68H78.3362C78.3895 72.68 78.4322 72.7013 78.4642 72.744C78.5068 72.776 78.5282 72.8187 78.5282 72.872V74.744C78.5282 74.7973 78.5548 74.824 78.6082 74.824H80.2402C80.2935 74.824 80.3362 74.8453 80.3682 74.888C80.4108 74.92 80.4322 74.9627 80.4322 75.016V76.136ZM86.0005 74.696C86.8645 74.696 87.5525 74.952 88.0645 75.464C88.5872 75.976 88.8485 76.6747 88.8485 77.56V82.808C88.8485 82.8613 88.8272 82.9093 88.7845 82.952C88.7525 82.984 88.7099 83 88.6565 83H87.1845C87.1312 83 87.0832 82.984 87.0405 82.952C87.0085 82.9093 86.9925 82.8613 86.9925 82.808V77.944C86.9925 77.4533 86.8539 77.0587 86.5765 76.76C86.2992 76.4507 85.9312 76.296 85.4725 76.296C85.0139 76.296 84.6405 76.4453 84.3525 76.744C84.0752 77.0427 83.9365 77.4373 83.9365 77.928V82.808C83.9365 82.8613 83.9152 82.9093 83.8725 82.952C83.8405 82.984 83.7979 83 83.7445 83H82.2725C82.2192 83 82.1712 82.984 82.1285 82.952C82.0965 82.9093 82.0805 82.8613 82.0805 82.808V71.992C82.0805 71.9387 82.0965 71.896 82.1285 71.864C82.1712 71.8213 82.2192 71.8 82.2725 71.8H83.7445C83.7979 71.8 83.8405 71.8213 83.8725 71.864C83.9152 71.896 83.9365 71.9387 83.9365 71.992V75.528C83.9365 75.56 83.9472 75.5813 83.9685 75.592C83.9899 75.6027 84.0059 75.592 84.0165 75.56C84.4539 74.984 85.1152 74.696 86.0005 74.696Z" fill="#474747"/>
</g>
<defs>
<filter id="filter0_d_851_2585" x="0" y="0" width="133.333" height="124" filterUnits="userSpaceOnUse" color-interpolation-filters="sRGB">
<feFlood flood-opacity="0" result="BackgroundImageFix"/>
<feColorMatrix in="SourceAlpha" type="matrix" values="0 0 0 0 0 0 0 0 0 0 0 0 0 0 0 0 0 0 127 0" result="hardAlpha"/>
<feOffset dy="5"/>
<feGaussianBlur stdDeviation="8"/>
<feComposite in2="hardAlpha" operator="out"/>
<feColorMatrix type="matrix" values="0 0 0 0 0 0 0 0 0 0 0 0 0 0 0 0 0 0 0.1 0"/>
<feBlend mode="normal" in2="BackgroundImageFix" result="effect1_dropShadow_851_2585"/>
<feBlend mode="normal" in="SourceGraphic" in2="effect1_dropShadow_851_2585" result="shape"/>
</filter>
<linearGradient id="paint0_linear_851_2585" x1="71.6" y1="31" x2="71.6" y2="49.1333" gradientUnits="userSpaceOnUse">
<stop stop-color="#DFFFF7"/>
<stop offset="1" stop-color="#1A9B65"/>
</linearGradient>
<linearGradient id="paint1_linear_851_2585" x1="61.8257" y1="51.5095" x2="61.8257" y2="54.9877" gradientUnits="userSpaceOnUse">
<stop stop-color="#DFFFF7"/>
<stop offset="1" stop-color="#1A9B65"/>
</linearGradient>
<linearGradient id="paint2_linear_851_2585" x1="71.5082" y1="51.515" x2="71.5082" y2="54.9877" gradientUnits="userSpaceOnUse">
<stop stop-color="#DFFFF7"/>
<stop offset="1" stop-color="#1A9B65"/>
</linearGradient>
<linearGradient id="paint3_linear_851_2585" x1="61.7333" y1="31" x2="61.7333" y2="49.1333" gradientUnits="userSpaceOnUse">
<stop stop-color="#DFFFF7"/>
<stop offset="1" stop-color="#1A9B65"/>
</linearGradient>
<linearGradient id="paint4_linear_851_2585" x1="73.6" y1="32.0667" x2="73.6" y2="52.8667" gradientUnits="userSpaceOnUse">
<stop stop-color="#DFFFF7"/>
<stop offset="1" stop-color="#1A9B65"/>
</linearGradient>
<linearGradient id="paint5_linear_851_2585" x1="59.7333" y1="32.0667" x2="59.7333" y2="52.8667" gradientUnits="userSpaceOnUse">
<stop stop-color="#DFFFF7"/>
<stop offset="1" stop-color="#1A9B65"/>
</linearGradient>
</defs>
</svg>
