<svg width="88" height="56" viewBox="0 0 88 56" fill="none" xmlns="http://www.w3.org/2000/svg">
<rect width="88" height="56" rx="28" fill="#336B6C"/>
<path d="M41.9977 35.3275V30.3275H45.9977V35.3275C45.9977 35.8775 46.4477 36.3275 46.9977 36.3275H49.9977C50.5477 36.3275 50.9977 35.8775 50.9977 35.3275V28.3275H52.6977C53.1577 28.3275 53.3777 27.7575 53.0277 27.4575L44.6677 19.9275C44.2877 19.5875 43.7077 19.5875 43.3277 19.9275L34.9677 27.4575C34.6277 27.7575 34.8377 28.3275 35.2977 28.3275H36.9977V35.3275C36.9977 35.8775 37.4477 36.3275 37.9977 36.3275H40.9977C41.5477 36.3275 41.9977 35.8775 41.9977 35.3275Z" fill="white"/>
</svg>
