<svg width="48" height="48" viewBox="0 0 48 48" fill="none" xmlns="http://www.w3.org/2000/svg">
<g filter="url(#filter0_i_689_3300)">
<g clip-path="url(#clip0_689_3300)">
<rect width="48" height="48" rx="12" fill="url(#paint0_linear_689_3300)"/>
<path d="M8.72916 4.41658C8.72195 4.42069 8.71268 4.42274 8.70445 4.42583C7.43915 4.8349 6.08325 4.18532 5.59937 2.96837C5.57981 2.91801 5.56128 2.86867 5.54378 2.81522C5.11755 1.4996 5.84028 0.0873709 7.15706 -0.340205C8.47486 -0.765725 9.88944 -0.0452182 10.3177 1.26937C10.7409 2.5778 10.0295 3.97975 8.72916 4.41658Z" fill="#75BFC0"/>
<path d="M8.72964 4.4166C8.72243 4.42071 8.71317 4.42277 8.70493 4.42585C7.43963 4.83493 6.08373 4.18534 5.59985 2.96839C5.60912 2.96634 5.61736 2.96223 5.62662 2.96017C6.89192 2.54904 8.24576 3.19863 8.72964 4.4166Z" fill="#336B6C"/>
<path d="M10.4249 2.31056C10.4074 2.14199 10.3713 1.97137 10.3168 1.80178C9.8895 0.48719 8.47492 -0.234343 7.15609 0.192205C6.18524 0.507748 5.53869 1.35673 5.43574 2.3085C5.31116 1.15425 6.00713 0.0318628 7.15609 -0.339183C8.47389 -0.764703 9.88847 -0.0441959 10.3168 1.27039C10.43 1.6178 10.463 1.97035 10.4249 2.31056Z" fill="#133133"/>
<path d="M30.2959 22.6235C30.2671 22.6348 30.2362 22.6451 30.2053 22.6544C28.8875 23.0799 27.4729 22.3583 27.0467 21.0438C27.0086 20.9276 26.9808 20.8104 26.9602 20.6933C26.7522 19.4866 27.4585 18.2779 28.6579 17.8883C29.9757 17.4628 31.3903 18.1833 31.8186 19.4979C32.2345 20.7858 31.555 22.1631 30.2959 22.6235Z" fill="#75BFC0"/>
<path d="M30.2959 22.6235C30.2671 22.6348 30.2362 22.6451 30.2053 22.6543C28.8875 23.0798 27.4729 22.3583 27.0467 21.0437C27.0086 20.9276 26.9808 20.8104 26.9602 20.6932C26.989 20.6829 27.0189 20.6737 27.0487 20.6634C28.3665 20.2369 29.7811 20.9574 30.2094 22.274C30.2475 22.3902 30.2763 22.5073 30.2959 22.6235Z" fill="#336B6C"/>
<path d="M31.9269 20.5411C31.9094 20.3725 31.8734 20.203 31.8188 20.0344C31.3916 18.7188 29.977 17.9972 28.6582 18.4248C27.6873 18.7393 27.0408 19.5893 26.9388 20.5411C26.8122 19.3869 27.5092 18.2634 28.6582 17.8903C29.976 17.4648 31.3906 18.1853 31.8188 19.4999C31.9321 19.8484 31.964 20.2019 31.9269 20.5411Z" fill="#133133"/>
<path d="M32.1454 16.1492C32.1094 16.1626 32.0723 16.1759 32.0353 16.1883C30.7339 16.6097 29.3379 15.9118 28.8921 14.627C28.8859 14.6105 28.8797 14.5941 28.8746 14.5777C28.4484 13.2631 29.1711 11.8508 30.4879 11.4243C31.8057 10.9988 33.2203 11.7182 33.6465 13.0339C34.0614 14.3125 33.3912 15.6826 32.1454 16.1492Z" fill="#75BFC0"/>
<path d="M32.1452 16.1492C32.1091 16.1626 32.0721 16.1759 32.035 16.1883C30.7337 16.6097 29.3376 15.9118 28.8918 14.627C28.9279 14.6136 28.9649 14.6003 29.002 14.588C30.3033 14.1676 31.6994 14.8665 32.1452 16.1492Z" fill="#336B6C"/>
<path d="M33.7513 14.1059C33.7318 13.9497 33.6978 13.7914 33.6463 13.6352C33.2201 12.3196 31.8055 11.598 30.4877 12.0246C29.5292 12.335 28.8868 13.1665 28.7704 14.1039C28.6284 12.9393 29.3274 11.7984 30.4877 11.4233C31.8055 10.9978 33.2201 11.7172 33.6463 13.0329C33.7626 13.3916 33.7935 13.7565 33.7513 14.1059Z" fill="#133133"/>
<path d="M33.0388 9.80955C33.0048 9.82085 32.9719 9.83113 32.9379 9.83936C31.6489 10.2001 30.294 9.48167 29.8791 8.19894C29.8668 8.15988 29.8555 8.12288 29.8452 8.08383C29.4941 6.80213 30.2127 5.45876 31.4914 5.04557C32.8092 4.61902 34.2227 5.33953 34.65 6.65618C35.0793 7.97179 34.3566 9.38197 33.0388 9.80955Z" fill="#75BFC0"/>
<path d="M32.9387 9.83943C31.6497 10.2002 30.2948 9.48174 29.8799 8.19902C29.8676 8.15996 29.8562 8.12296 29.8459 8.0839C31.1339 7.72416 32.4888 8.44159 32.9047 9.72431C32.9171 9.76337 32.9284 9.80037 32.9387 9.83943Z" fill="#336B6C"/>
<path d="M34.581 8.3881C34.6252 8.03761 34.5933 7.67068 34.477 7.31299C34.0497 5.9984 32.6362 5.27687 31.3184 5.70239C30.5915 5.93776 30.0459 6.47223 29.7761 7.12593C29.8894 6.18855 30.5339 5.35601 31.4934 5.04458C32.8112 4.61803 34.2247 5.33854 34.652 6.65518C34.8435 7.24618 34.8033 7.85569 34.581 8.3881Z" fill="#133133"/>
<path d="M32.3755 3.434C32.3508 3.44222 32.325 3.45044 32.3003 3.45661C31.0031 3.83382 29.6369 3.11435 29.2169 1.82442C29.1891 1.73911 29.1664 1.6538 29.1489 1.56952C28.8843 0.333047 29.5968 -0.929124 30.8291 -1.32895C32.1469 -1.75447 33.5615 -1.03499 33.9877 0.281655C34.416 1.59625 33.6933 3.00848 32.3755 3.434Z" fill="#75BFC0"/>
<path d="M32.3006 3.45655C31.0034 3.83377 29.6372 3.11429 29.2171 1.82437C29.1893 1.73906 29.1667 1.65375 29.1492 1.56946C30.4443 1.19225 31.8136 1.91173 32.2326 3.20165C32.2604 3.28594 32.2831 3.37124 32.3006 3.45655Z" fill="#336B6C"/>
<path d="M33.1631 3.01362C33.6099 2.38973 33.7623 1.57158 33.508 0.787352C33.0817 -0.528266 31.6672 -1.2498 30.3494 -0.822225C30.0549 -0.726637 29.7914 -0.582741 29.5618 -0.401844C29.8624 -0.825309 30.2979 -1.15832 30.8291 -1.32997C32.1469 -1.75549 33.5615 -1.03601 33.9877 0.280634C34.3203 1.30229 33.9579 2.38254 33.1631 3.01362Z" fill="#133133"/>
<path d="M31.2021 29.955C29.8555 30.954 28.4502 31.064 27.7635 31.0455C27.4186 30.4987 26.8822 29.6384 26.4632 28.7093C26.3705 28.5068 26.284 28.3002 26.2078 28.0915C26.0493 27.6691 25.9288 27.2436 25.8732 26.8366C25.7229 25.7522 26.0287 24.7994 27.3094 24.3852L27.6585 24.2721C30.1149 23.4786 30.8305 26.3843 31.0806 28.5263C31.1445 29.0803 31.1764 29.5809 31.2021 29.955Z" fill="url(#paint1_linear_689_3300)"/>
<path d="M31.2507 30.6848C30.7555 31.0075 30.2613 31.2305 29.798 31.3806C29.1721 31.5831 28.6017 31.655 28.158 31.6735C28.23 31.7814 28.3042 31.8822 28.3803 31.9757C29.0753 31.9521 30.1645 31.7794 31.2486 31.0661C31.2538 30.9438 31.2548 30.8163 31.2507 30.6848Z" fill="url(#paint2_linear_689_3300)"/>
<path d="M11.6204 10.1364L11.6194 10.1375C11.5422 10.1714 11.4619 10.2022 11.3785 10.2289C11.3188 10.2485 11.258 10.2649 11.1962 10.2803C10.0195 10.5661 8.80463 9.96581 8.3156 8.86809C8.31148 8.8609 8.3084 8.85165 8.30428 8.84446C8.27339 8.77148 8.24456 8.69645 8.21883 8.61936C7.7926 7.30374 8.51533 5.89151 9.83211 5.46393C11.1499 5.03841 12.5645 5.75892 12.9907 7.07351C13.3912 8.3069 12.7828 9.62355 11.6204 10.1364Z" fill="#75BFC0"/>
<path d="M11.1961 10.2803C10.0193 10.566 8.80446 9.96579 8.31543 8.86807C9.49322 8.58234 10.7081 9.18156 11.1961 10.2803Z" fill="#336B6C"/>
<path d="M12.9061 8.84141C12.9803 8.44466 12.9587 8.02531 12.8258 7.61521C12.3996 6.30062 10.985 5.57909 9.66723 6.00563C8.9548 6.23587 8.41532 6.75595 8.1394 7.39114C8.30104 6.51749 8.92597 5.7569 9.83196 5.46294C11.1498 5.03742 12.5643 5.75793 12.9906 7.07252C13.1862 7.67688 13.1419 8.3018 12.9061 8.84141Z" fill="#133133"/>
<path d="M35.143 37.8826V37.8908C35.1513 38.3616 35.1245 38.8262 35.0586 39.2681C35.0257 39.4819 34.9855 39.6906 34.9361 39.892C34.3287 42.3393 32.6299 43.2438 31.621 43.5706C31.1598 43.7197 30.8427 43.7474 30.8427 43.7474C30.8427 43.7474 31.4861 42.8306 31.6375 41.7843L31.6385 41.7832C31.7291 41.1542 31.6436 40.481 31.1371 39.9301C29.7843 38.4623 29.2551 38.376 28.7342 36.2032C28.5025 35.2411 28.6642 34.5422 28.9143 34.0601C29.1388 34.1866 29.3478 34.2801 29.531 34.351C29.4806 34.5442 29.4415 34.7837 29.4446 35.0612C29.4487 35.5207 29.565 36.0819 29.9326 36.6903C29.8945 36.6061 29.5825 35.8856 29.6155 35.1404C29.6258 34.9009 29.6721 34.6583 29.773 34.4353C29.9964 34.5052 30.1508 34.5329 30.2023 34.5401C30.3557 34.5638 30.7788 34.5072 31.0692 34.351C31.3863 34.6624 31.9371 35.3778 32.1141 36.7027C32.1141 36.7037 32.1141 36.7047 32.1141 36.7047C32.1255 36.7931 32.1358 36.8846 32.144 36.9792C32.144 36.9792 32.1491 36.8425 32.1368 36.6235V36.6225C32.1059 36.0418 31.9546 34.8875 31.2854 34.1824C31.3482 34.1095 31.5613 33.8844 31.7919 33.5051C32.3746 33.6603 32.7916 34.1547 33.0531 34.5905C33.2775 34.9595 33.3918 35.2863 33.4052 35.3274C33.4011 35.3059 33.3959 35.2863 33.3918 35.2658C33.1148 34.0499 32.3756 33.4846 31.9371 33.2471C32.0441 33.0446 32.1481 32.8124 32.2356 32.5472C33.1406 32.7466 33.8468 33.4589 34.3359 34.4168C34.6694 35.0674 34.9011 35.8331 35.0298 36.6277C35.0751 36.9093 35.106 37.195 35.1255 37.4807C35.1266 37.4849 35.1266 37.4879 35.1266 37.4921C35.1358 37.6216 35.141 37.7531 35.143 37.8826Z" fill="#75BFC0"/>
<path d="M29.8193 33.1114C30.1621 33.2646 30.6254 33.0734 30.8467 32.6294C30.9507 32.4218 31.0526 32.1689 31.1278 31.8688C30.7767 32.059 30.4308 32.2049 30.0993 32.3118C29.6854 32.4454 29.2973 32.5225 28.9524 32.5646C29.2674 32.8278 29.5722 33.0015 29.8193 33.1114Z" fill="url(#paint3_linear_689_3300)"/>
<path d="M19.6815 20.1146C19.6804 20.1146 19.6794 20.1156 19.6774 20.1156C19.5147 20.2143 19.3386 20.2955 19.1492 20.3572C19.0565 20.387 18.9618 20.4127 18.8681 20.4302C17.7995 20.647 16.7164 20.1413 16.1893 19.204C16.109 19.0611 16.041 18.908 15.9885 18.7466C15.9535 18.6387 15.9268 18.5328 15.9072 18.4249C15.6838 17.2079 16.3911 15.9838 17.6018 15.5932C18.9196 15.1667 20.3342 15.8872 20.7625 17.2038C21.1269 18.3293 20.6513 19.5246 19.6815 20.1146Z" fill="#75BFC0"/>
<path d="M18.8693 20.4301C17.8006 20.647 16.7176 20.1413 16.1904 19.2039C17.2591 18.9881 18.3422 19.4938 18.8693 20.4301Z" fill="#336B6C"/>
<path d="M20.5216 19.2718C20.6586 18.8062 20.6606 18.2954 20.499 17.7979C20.0728 16.4823 18.6582 15.7607 17.3404 16.1873C16.7443 16.3805 16.2697 16.7742 15.968 17.2706C16.1935 16.5049 16.7834 15.8584 17.6019 15.5932C18.9197 15.1667 20.3343 15.8872 20.7626 17.2038C20.9963 17.9233 20.8851 18.6726 20.5216 19.2718Z" fill="#133133"/>
<path d="M14.7686 15.7124C14.7099 15.736 14.6492 15.7587 14.5885 15.7792C14.4732 15.8172 14.3578 15.846 14.2415 15.8645C13.3057 16.029 12.3678 15.6425 11.8108 14.9045C11.6481 14.6877 11.5174 14.441 11.4299 14.1696C11.296 13.7565 11.2744 13.333 11.3506 12.9342C11.5153 12.0636 12.1382 11.3082 13.0411 11.0163C14.3589 10.5907 15.7735 11.3102 16.2017 12.6269C16.6063 13.8798 15.9691 15.2221 14.7686 15.7124Z" fill="#75BFC0"/>
<path d="M14.2405 15.8635C13.3047 16.0279 12.3668 15.6415 11.8098 14.9035C12.7457 14.7411 13.6836 15.1255 14.2405 15.8635Z" fill="#336B6C"/>
<path d="M15.8589 14.846C16.0041 14.3732 16.0093 13.8521 15.8456 13.3443C15.4183 12.0287 14.0048 11.3082 12.6869 11.7347C12.1526 11.9074 11.7171 12.2414 11.4165 12.6659C11.6471 11.9115 12.2319 11.2763 13.0401 11.0142C14.3579 10.5887 15.7725 11.3082 16.2008 12.6248C16.454 13.408 16.3006 14.2241 15.8589 14.846Z" fill="#133133"/>
<path d="M23.9037 24.6936C23.8357 24.7152 23.7678 24.7337 23.7008 24.7501C22.4438 25.0441 21.1517 24.3318 20.7451 23.084C20.7193 23.0038 20.6977 22.9237 20.6812 22.8435C20.6061 22.5033 20.605 22.161 20.6689 21.8352C20.8367 20.9698 21.4585 20.2205 22.3583 19.9296C23.6761 19.503 25.0907 20.2236 25.5169 21.5392C25.9442 22.8538 25.2225 24.266 23.9037 24.6936Z" fill="#75BFC0"/>
<path d="M23.7008 24.7491C22.4437 25.043 21.1516 24.3307 20.745 23.083C20.7192 23.0028 20.6976 22.9226 20.6812 22.8425C21.9382 22.5495 23.2323 23.2618 23.6359 24.5106C23.6617 24.5887 23.6833 24.6689 23.7008 24.7491Z" fill="#336B6C"/>
<path d="M24.9796 24.0028C25.2226 23.4581 25.273 22.8249 25.0733 22.2123C24.6471 20.8967 23.2325 20.1752 21.9147 20.6017C21.4874 20.7395 21.1219 20.982 20.8398 21.2904C21.1199 20.6644 21.6521 20.1556 22.3574 19.9285C23.6752 19.502 25.0898 20.2225 25.516 21.5381C25.8053 22.4271 25.5695 23.3594 24.9796 24.0028Z" fill="#133133"/>
<path d="M34.3091 32.2923C33.7676 31.7886 33.1499 31.4618 32.4869 31.321C32.5136 31.0034 32.5157 30.6601 32.4827 30.2921C32.4745 30.2017 32.4652 30.0639 32.4549 29.9046C32.3561 28.3834 32.1584 25.3699 30.644 23.8271C32.5836 23.1683 33.6451 21.0674 33.0109 19.1145C32.8019 18.4701 32.4323 17.9212 31.9628 17.4957C32.1152 17.4669 32.2686 17.4289 32.4199 17.3795C34.3936 16.7413 35.4787 14.6188 34.8393 12.6484C34.6108 11.9444 34.1918 11.3544 33.6585 10.9155C35.4828 10.1909 36.4588 8.16096 35.8442 6.26976C35.5127 5.25015 34.7827 4.46798 33.8829 4.03937C35.1153 3.09891 35.6866 1.45028 35.1811 -0.104822C34.8136 -1.23646 33.956 -2.07414 32.9193 -2.46266C33.956 -3.42676 34.4028 -4.93869 33.9375 -6.37148C33.4186 -7.97181 31.9186 -8.98627 30.3156 -8.96983C30.8623 -9.87123 31.0301 -10.9946 30.68 -12.0739C30.0407 -14.0442 27.9147 -15.1275 25.9411 -14.4893C25.6363 -14.3906 25.3532 -14.257 25.0938 -14.0935C25.1216 -14.5489 25.067 -15.0155 24.9177 -15.4749C24.2784 -17.4453 22.1524 -18.5286 20.1788 -17.8903C19.3726 -17.6293 18.7158 -17.1215 18.2628 -16.4771C17.5936 -18.3991 15.4985 -19.4475 13.5506 -18.8164C11.6038 -18.1853 10.5228 -16.1091 11.1096 -14.1603C10.3642 -14.4173 9.53339 -14.444 8.72726 -14.183C6.75365 -13.5447 5.66852 -11.4222 6.30786 -9.45188C6.45714 -8.99244 6.68776 -8.58233 6.97706 -8.23082C6.67128 -8.21129 6.36242 -8.15373 6.05871 -8.05506C4.08509 -7.41678 2.99996 -5.29432 3.63931 -3.32397C3.98935 -2.24476 4.78621 -1.43277 5.75809 -1.0237C4.45058 -0.0996838 3.83183 1.60137 4.35174 3.2017C4.81606 4.63346 6.06695 5.59653 7.47329 5.77126C6.86175 6.69322 6.65996 7.8742 7.02647 9.0048C7.53095 10.5599 8.962 11.562 10.5135 11.6011C10.0358 12.4758 9.90402 13.5365 10.2355 14.5561C10.8491 16.4473 12.832 17.5203 14.7356 17.0393C14.5616 17.7074 14.5688 18.431 14.7974 19.1351C15.4264 21.0746 17.4968 22.1538 19.4437 21.5772C19.3201 22.1877 19.3469 22.8363 19.5528 23.4704C20.1922 25.4408 22.3181 26.5241 24.2918 25.8858C24.4071 25.8488 24.5203 25.8057 24.6295 25.7584C24.2979 27.8973 25.9153 30.4648 26.7307 31.7588C26.8152 31.8935 26.8893 32.0106 26.9356 32.0888C27.2342 32.5893 27.5657 32.9891 27.9003 33.3067C27.5152 33.9594 27.1611 35.0181 27.5163 36.4961C27.9888 38.4623 28.5201 39.0646 29.4981 40.04C29.7081 40.2497 29.947 40.4882 30.2157 40.779C30.7614 41.3721 30.0386 42.7103 29.8142 43.0361C29.5352 43.436 29.5136 43.9581 29.7586 44.3795C30.0036 44.8009 30.471 45.0404 30.957 44.9962C31.0342 44.99 31.4429 44.9469 32.0102 44.7629C33.2343 44.3672 35.3994 43.2468 36.1561 40.1932C36.7656 37.7212 36.2436 34.091 34.3091 32.2923ZM30.2054 22.6543C28.8876 23.0809 27.473 22.3604 27.0458 21.0448C26.6185 19.7291 27.3412 18.3169 28.659 17.8904C29.9769 17.4638 31.3914 18.1853 31.8187 19.501C32.2449 20.8156 31.5232 22.2278 30.2054 22.6543ZM32.0339 16.1883C30.7161 16.6148 29.3015 15.8933 28.8742 14.5787C28.447 13.2631 29.1697 11.8509 30.4875 11.4243C31.8053 10.9978 33.2199 11.7193 33.6471 13.0339C34.0734 14.3505 33.3517 15.7628 32.0339 16.1883ZM34.652 6.65519C35.0792 7.97081 34.3565 9.38304 33.0397 9.80959C31.7219 10.2361 30.3073 9.5146 29.8801 8.19899C29.4528 6.88337 30.1756 5.47114 31.4923 5.04459C32.8101 4.61907 34.2247 5.33957 34.652 6.65519ZM33.9879 0.280613C34.4152 1.59623 33.6924 3.00846 32.3746 3.43501C31.0568 3.86156 29.6423 3.14003 29.215 1.82441C28.7877 0.508789 29.5094 -0.903444 30.8272 -1.32999C32.1471 -1.75551 33.5617 -1.03501 33.9879 0.280613ZM32.7453 -5.98502C33.1725 -4.6694 32.4498 -3.25717 31.133 -2.83062C29.8152 -2.40407 28.4006 -3.12458 27.9734 -4.44019C27.5461 -5.75581 28.2689 -7.16805 29.5856 -7.59459C30.9034 -8.02217 32.318 -7.30064 32.7453 -5.98502ZM26.3282 -13.298C27.646 -13.7246 29.0606 -13.003 29.4878 -11.6884C29.9151 -10.3728 29.1923 -8.96058 27.8745 -8.53403C26.5567 -8.10748 25.1422 -8.82799 24.7149 -10.1436C24.2887 -11.4592 25.0104 -12.8715 26.3282 -13.298ZM20.5669 -16.6981C21.8847 -17.1246 23.2993 -16.4031 23.7266 -15.0874C24.1538 -13.7718 23.4311 -12.3596 22.1133 -11.933C20.7955 -11.5065 19.3809 -12.227 18.9536 -13.5426C18.5274 -14.8593 19.2491 -16.2715 20.5669 -16.6981ZM13.9388 -17.6241C15.2566 -18.0507 16.6712 -17.3302 17.0984 -16.0145C17.5257 -14.6989 16.8029 -13.2867 15.4851 -12.8601C14.1673 -12.4336 12.7527 -13.1541 12.3255 -14.4697C11.8982 -15.7853 12.621 -17.1976 13.9388 -17.6241ZM9.11437 -12.9927C10.4322 -13.4193 11.8468 -12.6978 12.274 -11.3821C12.7013 -10.0665 11.9785 -8.65428 10.6607 -8.22773C9.34293 -7.80119 7.92835 -8.52272 7.50109 -9.83834C7.07383 -11.154 7.79657 -12.5662 9.11437 -12.9927ZM4.83254 -3.71044C4.40528 -5.02606 5.12698 -6.43829 6.44479 -6.86484C7.76259 -7.29138 9.17717 -6.56985 9.60443 -5.25423C10.0317 -3.93861 9.30895 -2.52638 7.99115 -2.09983C6.67437 -1.67431 5.25979 -2.39482 4.83254 -3.71044ZM5.54497 2.81523C5.11772 1.49961 5.84045 0.0873795 7.15722 -0.339167C8.47503 -0.765715 9.88961 -0.045208 10.3169 1.27041C10.7441 2.58603 10.0214 3.99826 8.70359 4.42481C7.38681 4.85136 5.97223 4.13085 5.54497 2.81523ZM8.2197 8.61834C7.79245 7.30272 8.51518 5.89049 9.83195 5.46394C11.1498 5.03739 12.5643 5.75893 12.9916 7.07352C13.4189 8.38914 12.6971 9.80137 11.3793 10.2279C10.0615 10.6545 8.64696 9.93396 8.2197 8.61834ZM14.5874 15.7792C13.2696 16.2058 11.855 15.4852 11.4277 14.1696C11.0005 12.854 11.7222 11.4418 13.04 11.0152C14.3578 10.5887 15.7724 11.3092 16.1996 12.6248C16.6269 13.9404 15.9052 15.3527 14.5874 15.7792ZM19.1492 20.3571C17.8314 20.7837 16.4169 20.0622 15.9896 18.7476C15.5623 17.4319 16.2851 16.0197 17.6029 15.5932C18.9207 15.1666 20.3353 15.8882 20.7625 17.2027C21.1887 18.5194 20.467 19.9306 19.1492 20.3571ZM23.9047 24.6925C22.5869 25.1191 21.1723 24.3975 20.745 23.0819C20.3178 21.7663 21.0405 20.3541 22.3583 19.9275C23.6761 19.501 25.0907 20.2215 25.5179 21.5371C25.9442 22.8548 25.2225 24.267 23.9047 24.6925ZM22.0639 18.7106C22.1874 18.1 22.1606 17.4515 21.9547 16.8173C21.3411 14.9261 19.3582 13.8531 17.4546 14.3341C17.6286 13.666 17.6214 12.9424 17.3929 12.2383C16.8884 10.6832 15.4573 9.68111 13.9058 9.64206C14.3835 8.76737 14.5153 7.70666 14.1838 6.68705C13.7184 5.25529 12.4686 4.29222 11.0622 4.11749C11.6738 3.19553 11.8756 2.01455 11.5091 0.883947C11.159 -0.195271 10.3622 -1.00725 9.39028 -1.41633C10.6978 -2.34035 11.3165 -4.0414 10.7966 -5.64172C10.6473 -6.10116 10.4167 -6.51126 10.1274 -6.86278C10.4332 -6.88231 10.7421 -6.93987 11.0468 -7.03854C12.9947 -7.6686 14.0757 -9.74481 13.4889 -11.6925C14.2342 -11.4356 15.0651 -11.4089 15.8712 -11.6699C16.6773 -11.931 17.3342 -12.4387 17.7872 -13.0832C18.4564 -11.1612 20.5515 -10.1128 22.4993 -10.7439C22.8041 -10.8425 23.0872 -10.9761 23.3467 -11.1396C23.3189 -10.6842 23.3734 -10.2176 23.5227 -9.75817C24.0416 -8.15784 25.5416 -7.14338 27.1446 -7.15982C26.5979 -6.25842 26.4301 -5.135 26.7801 -4.05579C27.1477 -2.92415 28.0053 -2.08647 29.042 -1.69795C28.0053 -0.733852 27.5585 0.778082 28.0238 2.21087C28.3553 3.23047 29.0853 4.01265 29.9851 4.44125C28.7517 5.38172 28.1813 7.03035 28.6868 8.58545C28.9154 9.28951 29.3344 9.87948 29.8677 10.3184C28.0434 11.043 27.0684 13.0729 27.682 14.9641C27.891 15.6086 28.2606 16.1574 28.7301 16.583C28.5777 16.6117 28.4243 16.6498 28.273 16.6991C26.913 17.139 25.9751 18.284 25.7331 19.5976C24.7849 18.6962 23.3961 18.3169 22.0639 18.7106ZM27.7634 31.0465C26.7801 29.4853 24.231 25.3822 27.3073 24.3873L27.6573 24.2742C30.7469 23.2741 31.0826 28.1327 31.202 29.956C29.8554 30.9551 28.4501 31.065 27.7634 31.0465ZM28.1566 31.6735C28.6014 31.656 29.1707 31.5831 29.7967 31.3806C30.26 31.2305 30.7542 31.0075 31.2494 30.6847C31.2535 30.8163 31.2524 30.9438 31.2463 31.065C30.1622 31.7784 29.0729 31.951 28.378 31.9747C28.3039 31.8811 28.2297 31.7804 28.1566 31.6735ZM31.1279 31.8688C31.0527 32.1689 30.9508 32.4228 30.8468 32.6294C30.6255 33.0734 30.1622 33.2656 29.8193 33.1114C29.5722 33.0015 29.2675 32.8278 28.9525 32.5636C29.2974 32.5215 29.6855 32.4454 30.0994 32.3108C30.4309 32.2039 30.7768 32.0589 31.1279 31.8688ZM34.9361 39.892C34.3297 42.3403 32.63 43.2438 31.622 43.5706C31.1598 43.7196 30.8437 43.7474 30.8437 43.7474C30.8437 43.7474 32.4899 41.3988 31.1382 39.93C29.7854 38.4623 29.2562 38.3749 28.7352 36.2021C28.5036 35.2401 28.6652 34.5401 28.9164 34.0591C29.1419 34.1855 29.3509 34.2791 29.5342 34.3489C29.4013 34.8639 29.3458 35.717 29.9388 36.6955C29.9388 36.6955 29.3355 35.4004 29.7761 34.4343C29.9985 34.5041 30.1539 34.5319 30.2054 34.5391C30.3578 34.5627 30.783 34.5062 31.0723 34.35C31.411 34.683 32.0143 35.4744 32.1471 36.9771C32.1471 36.9771 32.2109 35.1507 31.2874 34.1814C31.3503 34.1084 31.5634 33.8823 31.794 33.5041C32.9079 33.8001 33.4093 35.3316 33.4093 35.3316C33.1437 34.0714 32.386 33.4876 31.9402 33.2471C32.0462 33.0457 32.1502 32.8123 32.2387 32.5472C34.6211 33.0703 35.6146 37.1539 34.9361 39.892Z" fill="#182B2D"/>
<path d="M31.0784 28.5284C31.0784 28.5284 30.3752 25.3123 29.4322 24.8159C28.5787 24.3667 26.8038 24.488 26.2447 25.854C26.0532 26.3206 25.9184 26.8828 26.0192 27.5242L25.872 26.8386C25.7217 25.7543 26.0275 24.8015 27.3082 24.3873L27.6572 24.2742C30.1127 23.4797 30.8282 26.3854 31.0784 28.5284Z" fill="#133133"/>
<path d="M31.6397 41.7832C31.7303 41.1542 31.6449 40.481 31.1383 39.9301C29.7855 38.4623 29.2563 38.376 28.7354 36.2032C28.5038 35.2411 28.6654 34.5422 28.9156 34.0601C29.14 34.1866 29.349 34.2801 29.5323 34.351C29.4818 34.5442 29.4427 34.7837 29.4458 35.0612C28.7714 34.5751 29.244 37.342 30.3302 38.1488C31.4173 38.9536 32.1143 40.6012 31.6397 41.7832Z" fill="#336B6C"/>
<path d="M31.0701 34.35C31.3872 34.6614 31.938 35.3768 32.1151 36.7016C31.6003 34.1547 30.3391 35.3244 29.6174 35.1393C29.6277 34.8999 29.6741 34.6573 29.775 34.4343C29.9984 34.5042 30.1528 34.5319 30.2043 34.5391C30.3566 34.5627 30.7798 34.5062 31.0701 34.35Z" fill="#336B6C"/>
<path d="M33.0541 34.5884C32.5836 33.981 31.8753 33.7795 32.1152 34.5864C32.3839 35.4878 32.2057 36.3553 32.1378 36.6205C32.1069 36.0397 31.9556 34.8855 31.2864 34.1804C31.3492 34.1074 31.5623 33.8823 31.7929 33.5031C32.3756 33.6583 32.7916 34.1537 33.0541 34.5884Z" fill="#336B6C"/>
<path d="M34.3368 34.4158C33.4174 32.8935 32.0986 32.8041 32.671 33.3756C33.507 34.2102 33.6326 36.4231 33.4071 35.3316C33.4071 35.3305 33.4061 35.3274 33.4061 35.3264C33.402 35.3048 33.3968 35.2853 33.3927 35.2647C33.1158 34.0488 32.3766 33.4835 31.938 33.2461C32.0451 33.0436 32.149 32.8113 32.2366 32.5461C33.1415 32.7455 33.8478 33.4589 34.3368 34.4158Z" fill="#336B6C"/>
<path d="M35.1434 37.8826C35.1362 37.7716 35.13 37.6452 35.127 37.5023V37.491C35.1362 37.6215 35.1414 37.7531 35.1434 37.8826Z" fill="#336B6C"/>
<path d="M35.1431 37.8826V37.8908C35.1514 38.3616 35.1246 38.8262 35.0587 39.2681C34.9033 38.9464 34.824 38.0388 34.7921 38.5291C34.7457 39.2352 34.4544 37.823 34.4626 38.7408C34.4698 39.6587 34.1095 39.0697 34.1095 39.5652C34.1095 40.0595 33.6153 39.3061 33.6153 40.0359C33.6153 40.7646 33.2581 39.5826 33.1376 40.2004C33.0182 40.8191 32.837 41.6825 32.837 40.6711C32.837 39.6597 32.4849 41.8007 32.4612 40.6711C32.4375 39.5415 32.9791 40.6711 32.909 39.4953C32.838 38.3184 33.4506 40.6248 33.5206 39.189C33.5927 37.7541 34.0858 39.7296 34.1342 38.4602C34.1805 37.1899 34.5347 38.7891 34.44 37.491C34.3463 36.1929 34.7231 38.6011 34.7488 37.3543C34.7663 36.4745 35.0289 36.9185 35.032 36.6266C35.0773 36.9082 35.1081 37.194 35.1277 37.4797C35.1287 37.4838 35.1287 37.4869 35.1287 37.491C35.1359 37.6215 35.1411 37.7531 35.1431 37.8826Z" fill="#133133"/>
</g>
</g>
<defs>
<filter id="filter0_i_689_3300" x="0" y="0" width="48" height="48" filterUnits="userSpaceOnUse" color-interpolation-filters="sRGB">
<feFlood flood-opacity="0" result="BackgroundImageFix"/>
<feBlend mode="normal" in="SourceGraphic" in2="BackgroundImageFix" result="shape"/>
<feColorMatrix in="SourceAlpha" type="matrix" values="0 0 0 0 0 0 0 0 0 0 0 0 0 0 0 0 0 0 127 0" result="hardAlpha"/>
<feOffset dy="115"/>
<feGaussianBlur stdDeviation="12.5"/>
<feComposite in2="hardAlpha" operator="arithmetic" k2="-1" k3="1"/>
<feColorMatrix type="matrix" values="0 0 0 0 1 0 0 0 0 1 0 0 0 0 1 0 0 0 0.25 0"/>
<feBlend mode="normal" in2="shape" result="effect1_innerShadow_689_3300"/>
</filter>
<linearGradient id="paint0_linear_689_3300" x1="24" y1="0" x2="24" y2="48" gradientUnits="userSpaceOnUse">
<stop stop-color="#D9FFE9"/>
<stop offset="1" stop-color="white"/>
</linearGradient>
<linearGradient id="paint1_linear_689_3300" x1="28.5201" y1="24.1384" x2="28.5201" y2="31.0473" gradientUnits="userSpaceOnUse">
<stop stop-color="#FFD77F"/>
<stop offset="1" stop-color="#FF9F43"/>
</linearGradient>
<linearGradient id="paint2_linear_689_3300" x1="29.7056" y1="30.6848" x2="29.7056" y2="31.9757" gradientUnits="userSpaceOnUse">
<stop stop-color="#FFD77F"/>
<stop offset="1" stop-color="#FF9F43"/>
</linearGradient>
<linearGradient id="paint3_linear_689_3300" x1="30.0401" y1="31.8688" x2="30.0401" y2="33.1636" gradientUnits="userSpaceOnUse">
<stop stop-color="#FFD77F"/>
<stop offset="1" stop-color="#FF9F43"/>
</linearGradient>
<clipPath id="clip0_689_3300">
<rect width="48" height="48" rx="12" fill="white"/>
</clipPath>
</defs>
</svg>
